<svg width="114" height="114" viewBox="0 0 114 114" fill="none" xmlns="http://www.w3.org/2000/svg">
<ellipse cx="57" cy="57" rx="57" ry="57" fill="black"/>
<path d="M26.7016 57.1694L20.8783 58.1203L20.7451 74.7851L16.0497 75.5519L16.2092 58.8828L10.5171 59.8123L10.5689 56.0067L26.7534 53.3637L26.7016 57.1694Z" fill="white"/>
<path d="M42.7856 62.486L35.4671 63.6811L35.4336 68.588L44.0898 67.1744L44.038 70.98L30.7127 73.1561L30.8934 52.6594L44.2712 50.4748L44.2194 54.2804L35.5369 55.6983L35.4879 60.0152L42.8325 58.8158L42.7856 62.486ZM32.5383 49.3745C32.4307 48.8804 32.5415 48.4045 32.875 47.973C33.2085 47.5416 33.6507 47.2808 34.1972 47.1646C34.7481 47.0747 35.2502 47.1812 35.7256 47.4537C36.1748 47.7304 36.4532 48.1158 36.5608 48.61C36.6727 49.1303 36.5619 49.6062 36.2241 50.0115C35.8906 50.4429 35.4484 50.7037 34.9281 50.8156C34.351 50.9098 33.8489 50.8033 33.3997 50.5265C32.8981 50.2584 32.646 49.8687 32.5383 49.3745ZM39.4371 48.248C39.3252 47.7276 39.436 47.2517 39.7738 46.8465C40.1072 46.415 40.5494 46.1542 41.0698 46.0423C41.6206 45.9524 42.1228 46.0589 42.5981 46.3314C43.0473 46.6081 43.3257 46.9935 43.4333 47.4876C43.5409 47.9818 43.4301 48.4577 43.0966 48.8892C42.7631 49.3206 42.321 49.5814 41.7744 49.6975C41.2235 49.7875 40.7214 49.681 40.246 49.4085C39.7969 49.1318 39.5185 48.7464 39.4371 48.248Z" fill="white"/>
<path d="M52.896 62.5605L52.825 69.5471L48.1559 70.3096L48.3367 49.8129L55.502 48.6697C57.7316 48.3056 59.5614 48.6262 61.048 49.6491C62.5347 50.6721 63.3468 52.1822 63.5064 54.149C63.62 55.5039 63.3625 56.7309 62.7908 57.8476C62.1929 58.9686 61.3423 59.8616 60.1951 60.5875C59.0479 61.3135 57.7268 61.7986 56.2054 62.047L52.896 62.5605ZM52.9521 58.7811L55.7631 58.349C56.9392 58.13 57.793 57.5866 58.3026 56.7493C58.8122 55.912 58.9246 54.9511 58.6135 53.8708C58.4449 53.3328 58.1622 52.9212 57.7698 52.6621C57.3774 52.403 56.8752 52.2965 56.2896 52.3383L53.0064 52.8475L52.9521 58.7811Z" fill="white"/>
<path d="M74.2523 57.9384L71.9702 58.3111L71.8651 66.4074L67.196 67.1699L67.3767 46.6732L72.072 45.9065L71.9979 53.8631L73.6505 53.5932L77.4274 45.0588L83.3294 44.095L77.7849 54.6685L83.5946 64.5189L78.2435 65.3928L74.2523 57.9384Z" fill="white"/>
<path d="M97.7247 58.3632L91.3506 59.4041L90.2014 63.4159L85.0339 64.2598L92.3232 42.6022L96.73 41.8826L103.658 61.2184L98.7789 62.0152L97.7247 58.3632ZM92.504 55.4185L96.6486 54.7417L94.6606 48.0106L92.504 55.4185Z" fill="white"/>
</svg>
