<svg width="239" height="313" viewBox="0 0 239 313" fill="none" xmlns="http://www.w3.org/2000/svg">
<path d="M82.0266 282.773C81.35 282.064 80.7056 281.242 80.1095 280.292C78.708 278.085 76.6621 273.622 77.8381 270.803C78.4019 269.434 79.9323 267.581 81.5111 265.89C71.6842 265.229 52.2237 263.393 46.7303 259.075C39.1588 253.131 34.2131 248.056 34.7286 242.611C35.0025 239.712 36.4524 231.109 38.7883 226.228C38.3694 226.324 37.9345 226.453 37.5639 226.582C34.6642 227.629 24.2735 227.227 21.2932 226.196C18.2162 225.132 13.8505 223.989 11.4985 223.989C7.63221 223.989 2.39658 221.218 1.70386 217.77C1.38167 216.175 0.640625 212.148 0.640625 209.361C0.640625 205.865 2.87987 201.58 7.18114 200.146C7.63221 200.001 18.3451 196.457 23.1297 198.004C24.5473 198.455 26.11 199.341 27.6243 200.178C28.9131 200.887 31.0073 202.063 31.8611 202.16C35.3247 199.889 56.6539 179.526 58.3293 176.868C59.312 174.886 64.8698 156.795 65.8525 152.993C66.7546 149.498 71.9741 138.092 73.3757 135.402C73.6334 134.918 73.8429 134.435 74.0523 133.968C75.1961 131.439 76.4848 128.555 81.7527 126.171C87.3428 123.642 96.2514 120.549 98.7001 119.759C100.247 119.26 101.938 118.728 103.034 118.39C103.63 116.441 104.113 113.879 103.726 112.574C103.356 111.318 103.05 110.416 102.824 109.787C101.181 109.368 98.9256 108.579 97.7818 107.226C96.7025 105.937 93.3516 100.025 93.3516 97.6245C93.3516 96.4807 93.8349 95.0952 94.3021 94.032C93.4644 93.0332 92.3367 91.5511 91.499 90.0207C90.5163 88.2164 89.6464 83.2708 88.9859 81.2732C75.1477 80.8543 25.6911 79.9522 25.6911 63.9392C25.6911 47.9262 71.4586 42.9644 82.8965 42.014C84.2497 40.7735 87.3428 38.4215 91.4507 38.4215C93.7544 38.4215 97.1213 38.0671 99.715 37.7449C97.3952 33.7658 94.0766 26.6776 94.0766 18.7194C94.0121 5.57394 113.44 0 121.157 0C131.483 0 147.931 6.74994 149.478 16.0613C150.46 21.9252 144.065 35.119 141.246 40.1936C155.97 40.8057 202.849 44.3176 202.108 58.7841C201.238 75.9892 161.608 79.5655 151.62 80.7899C151.314 82.2559 152.071 88.8286 151.266 90.0851C150.476 91.3256 149.01 92.7271 147.963 93.6454C148.479 96.094 148.801 99.3321 147.561 101.136C146.272 103.005 141.036 107.58 139.457 108.209C139.006 108.386 138.426 108.563 137.879 108.708C137.798 109.771 137.734 110.995 137.718 111.737C137.766 111.801 137.83 111.849 137.879 111.914C138.426 112.51 139.329 113.492 139.425 115.168C139.49 116.167 139.667 118.116 139.796 119.453C149.832 123.738 161.495 129.167 163.106 131.89C164.121 133.597 165.7 138.817 168.181 147.178C169.502 151.656 170.871 156.28 171.612 158.181C172.031 159.228 172.547 160.533 173.111 161.934C176.204 169.635 177.605 173.324 177.766 174.886C177.911 176.336 179.458 180.75 180.15 181.942C181.02 182.474 186.03 185.229 199.675 192.043L200.465 192.43C202.076 193.235 203.252 194.331 204.186 195.201C204.766 195.748 205.265 196.216 205.749 196.505C206.602 197.037 207.65 197.375 208.262 197.488C208.584 197.15 209.132 196.57 209.615 196.054C214.577 190.819 216.123 189.466 217.493 189.16C218.443 188.95 230.751 188.016 232.765 188.741C234.214 189.272 233.441 190.803 234.166 192.333C235.68 192.994 237.517 194.121 237.952 195.861C238.371 197.52 236.583 207.814 234.279 209.49C232.958 210.44 231.073 210.489 229.237 210.521C228.785 210.521 228.093 210.537 227.883 210.585C226.433 211.117 219.506 215.676 218.185 217.061C216.913 219.075 213.9 219.977 208.439 219.977C206.538 219.977 201.415 219.768 198.789 219.558C197.678 219.478 195.841 219.059 193.521 218.543C190.654 217.899 186.916 217.061 184.146 216.804C189.848 220.815 200.207 229.047 200.577 236.151C200.964 243.755 196.84 250.988 188.979 256.562C182.664 261.025 157.194 266.711 151.862 266.019C147.126 265.406 140.456 265.825 139.167 266.292C138.604 266.502 138.008 266.631 137.492 266.76C137.009 266.872 136.203 267.05 136.026 267.227C136.026 267.227 135.962 267.388 135.962 267.823C136.01 269.402 136.638 274.573 137.202 279.132C138.072 286.252 138.459 289.474 138.394 290.602C138.281 292.873 139.393 293.292 140.44 293.502L141.213 293.663C146.578 294.726 185.128 296.949 185.128 303.409C185.128 310.787 135.736 312.334 117.274 312.334C105.659 312.334 88.1643 311.126 79.5457 310.465C76.2754 310.223 73.0213 310.175 69.751 310.368C59.1509 310.965 33.6815 311.625 29.8313 304.698C26.7544 299.156 40.2865 298.045 46.0054 298.093C51.7243 298.141 61.2612 296.836 64.8376 293.067C68.4139 289.297 72.9407 284.786 75.7116 284.142L82.0266 282.708V282.773Z" fill="#F4F4F4"/>
<path d="M78.2136 288.932L96.2174 302.935L97.8178 304.935L77.8135 306.535L71.4121 306.135L77.4134 290.532L78.2136 288.932Z" fill="white"/>
<path d="M122.912 8.79638C123.234 9.07025 123.911 9.07025 123.669 9.77907C123.492 10.3107 123.009 10.6168 122.365 10.5362C121.978 10.4879 121.607 10.4073 121.575 9.89184C121.543 9.44077 121.607 9.07025 122.155 8.97359C122.284 8.95748 122.381 8.84471 122.493 8.78027H122.912V8.79638Z" fill="black"/>
<path d="M89.7917 199.406C90.0978 201.564 91.4671 202.628 93.3358 203.208C95.7201 203.949 98.1687 204.335 100.65 204.593C104.838 205.012 109.027 205.495 113.231 205.769C116.228 205.962 119.24 205.914 122.253 205.898C126.119 205.866 129.985 205.705 133.852 205.656C137.943 205.608 141.955 204.964 145.95 204.126C146.627 203.981 147.271 203.723 147.915 203.514C148.544 203.32 149.107 203.353 149.703 203.691C152.893 205.544 156.083 207.412 159.321 209.2C162.511 210.989 165.716 212.745 168.971 214.42C172.048 215.999 174.915 217.948 177.815 219.801C179.7 221.009 181.601 222.217 183.469 223.457C186.401 225.391 189.075 227.614 191.524 230.127C192.491 231.126 193.328 232.221 193.941 233.478C194.44 234.509 194.617 235.572 194.311 236.7C193.989 237.827 193.683 238.955 193.296 240.066C192.958 241.065 192.33 241.887 191.589 242.644C189.51 244.787 186.933 246.188 184.307 247.509C181.085 249.136 177.605 250.022 174.11 250.86C168.648 252.165 163.203 253.566 157.758 254.968C156.002 255.419 154.263 255.741 152.442 255.435C151.331 255.242 150.251 255.032 149.494 254.13C149.252 253.84 149.011 253.534 148.882 253.196C147.609 249.958 146.337 246.704 145.821 243.224C145.724 242.547 145.628 241.855 145.579 241.162C145.499 239.76 146.143 238.665 147.19 237.843C148.705 236.651 150.461 235.814 152.345 235.572C156.26 235.089 160.062 234.138 163.88 233.123C166.538 232.431 169.067 231.48 171.468 230.159C171.645 230.062 171.822 229.95 171.935 229.724L167.505 231.545L167.36 231.367C168.423 229.885 169.583 228.5 171.162 227.453C170.968 227.517 170.743 227.565 170.565 227.662C169.019 228.532 167.94 229.885 166.909 231.271C166.635 231.625 166.377 231.867 165.942 231.963C162.656 232.753 159.385 233.574 156.083 234.348C155.116 234.573 154.118 234.718 153.119 234.799C151.25 234.944 149.591 235.717 147.948 236.506C147.738 236.619 147.513 236.732 147.271 236.861C147.045 236.732 146.788 236.619 146.578 236.458C142.035 233.107 136.912 231.029 131.532 229.515C129.148 228.854 126.731 228.242 124.299 227.743C122.188 227.292 120.046 227.404 117.903 227.485C114.391 227.614 111.282 228.919 108.173 230.401C103.952 232.431 100.07 235.008 96.1711 237.553C94.9629 238.343 93.8191 239.261 92.6431 240.115C92.3693 240.308 92.0632 240.469 91.7732 240.646C89.5501 238.423 86.8437 237.215 83.9439 236.329C79.4815 234.976 75.0997 233.397 70.8629 231.448C69.8319 230.981 68.9136 230.288 67.9309 229.708C67.4638 229.434 66.9966 229.16 66.4327 229.031L68.382 230.352L68.3498 230.497L66.8999 230.32C70.0091 231.11 72.7477 232.833 75.728 233.897C78.5794 234.911 81.4147 236.023 84.2822 237.006C86.2959 237.682 88.1485 238.649 89.9367 239.76C90.9516 240.405 91.306 241.42 91.3705 242.499C91.4832 244.287 91.5638 246.092 91.4832 247.88C91.3866 249.974 91.3544 252.1 90.7583 254.146C90.5167 254.968 90.2589 255.79 90.0011 256.627C88.8896 256.998 87.8102 256.74 86.8275 256.418C82.1396 254.871 77.2423 254.436 72.4255 253.582C68.527 252.874 64.5962 252.294 60.7138 251.488C58.0557 250.941 55.4298 250.151 53.0134 248.814C51.193 247.799 49.5015 246.623 48.0033 245.157C45.8285 243.015 44.733 240.421 44.5558 237.392C44.3786 234.493 44.3786 234.444 46.2635 232.237C48.6316 229.466 51.338 227.05 54.125 224.714C57.653 221.766 61.326 219.011 65.1278 216.434C68.4625 214.162 71.6684 211.697 75.0031 209.394C79.6104 206.22 84.2661 203.111 88.8896 199.97C89.1634 199.776 89.4695 199.647 89.8078 199.454L89.7917 199.406ZM64.1613 229.821V229.756H63.533V229.821H64.1613Z" fill="black"/>
<path d="M48.44 198.826C48.6172 198.73 48.8266 198.681 48.9716 198.553C52.1452 195.83 55.4316 193.22 58.4441 190.337C60.9894 187.904 63.2931 185.23 65.5484 182.523C67.3044 180.429 68.2387 177.884 68.7865 175.21C69.3503 172.471 69.898 169.732 70.5585 167.01C71.6057 162.676 73.0394 158.472 74.7631 154.348C76.3258 150.626 77.7595 146.857 79.3222 143.119C81.0298 139.044 83.8007 135.838 87.5864 133.566C89.1813 132.616 90.9372 131.939 92.6126 131.166C93.2731 130.86 93.9497 130.618 94.6102 130.328C98.396 128.653 102.166 126.945 105.951 125.286C106.773 124.932 107.611 124.658 108.416 124.352C110.382 125.882 112.283 127.38 114.473 128.443C116.648 129.491 118.92 130.135 121.384 130.344C121.449 131.15 121.562 131.891 121.578 132.648C121.674 137.513 121.771 142.394 121.819 147.259C121.836 149.048 121.691 150.852 121.707 152.64C121.755 157.376 121.9 162.113 121.9 166.849C121.9 174.485 121.803 182.121 121.787 189.741C121.787 192.785 121.819 195.83 121.836 198.859C121.836 199.197 121.836 199.535 121.836 199.986C121.352 200.019 120.95 200.067 120.563 200.051C118.082 199.938 115.585 199.906 113.12 199.664C108.593 199.213 104.067 198.681 99.5398 198.118C96.8334 197.779 94.1914 197.119 91.5977 196.249C91.2755 196.136 90.9694 195.975 90.6473 195.83C90.615 195.669 90.5667 195.54 90.5667 195.411C90.4862 192.785 90.4217 190.159 90.3573 187.534C90.2928 185.117 90.1801 182.701 90.1801 180.284C90.1801 178.706 90.2767 177.111 90.4056 175.532C90.5667 173.293 90.7922 171.053 90.9856 168.83C91.1628 166.833 91.3883 164.835 91.5172 162.838C91.7105 159.793 91.0822 156.877 90.0029 154.009C90.0351 154.203 90.0673 154.396 90.1156 154.605C90.164 154.815 90.1962 155.008 90.2445 155.218C91.2433 158.44 91.3239 161.726 90.905 165.061C90.5184 168.073 90.2445 171.102 89.9384 174.13C89.7612 175.886 89.4229 177.578 88.6819 179.221C87.522 181.799 86.5876 184.473 85.5244 187.099C84.0745 190.675 82.5924 194.251 81.1103 197.828C80.2082 200.002 78.6456 201.63 76.7769 202.999C75.2625 204.11 73.571 204.884 71.8634 205.625C67.0627 207.735 62.2782 209.878 57.4775 211.988C56.4948 212.423 55.496 212.81 54.4972 213.164C52.3546 213.921 50.1959 214.63 47.8923 215.403C47.4895 213.293 46.7485 211.344 45.7336 209.507C44.7187 207.671 43.881 205.705 42.125 204.288C42.3505 204.03 42.5116 203.788 42.7049 203.627C44.332 202.29 45.9752 200.985 47.6184 199.648C47.9245 199.39 48.1983 199.084 48.4883 198.81L48.4561 198.843L48.44 198.826Z" fill="black"/>
<path d="M150.187 151.029C149.253 152.656 148.818 154.412 148.657 156.232C148.109 162.225 147.787 168.234 148.077 174.243C148.287 178.448 148.641 182.652 148.899 186.857C149.044 189.128 149.124 191.416 149.253 193.687C149.318 194.783 149.414 195.878 149.511 197.119C140.683 199.809 131.677 200.244 122.447 199.986C122.414 199.632 122.35 199.261 122.35 198.907C122.35 195.04 122.334 191.174 122.334 187.292C122.334 185.842 122.398 184.392 122.398 182.942C122.414 176.241 122.447 169.539 122.431 162.837C122.431 159.486 122.253 156.136 122.221 152.785C122.189 148.806 122.253 144.843 122.189 140.864C122.124 137.416 121.947 133.953 121.818 130.441C126.377 129.909 130.244 127.541 134.126 125.495C138.234 127.557 142.326 129.539 146.369 131.649C149.205 133.131 151.976 134.774 154.763 136.353C156.132 137.126 157.147 138.254 157.856 139.623C158.452 140.751 158.967 141.927 159.354 143.135C160.127 145.568 160.836 148.016 161.496 150.481C163.123 156.474 164.751 162.467 166.281 168.476C167.07 171.633 168.166 174.678 169.455 177.658C170.453 179.978 171.42 182.298 172.564 184.537C174.255 187.856 176.704 190.353 179.926 192.157C183.019 193.881 186.305 195.089 189.64 196.249C192.443 197.215 195.214 198.279 197.84 199.664C198.677 200.115 199.451 200.679 200.288 201.21C199.241 203.272 198.355 205.254 197.953 207.413C197.55 209.523 197.276 211.65 197.985 213.921C197.453 213.857 197.018 213.857 196.615 213.728C195.375 213.325 194.151 212.826 192.894 212.455C190.88 211.859 188.851 211.295 186.821 210.796C180.522 209.249 174.223 207.767 167.94 206.188C166.345 205.786 164.799 205.173 163.252 204.561C160.9 203.627 159.177 201.903 157.968 199.777C154.618 193.881 151.831 187.727 149.769 181.251C149.011 178.882 148.754 176.466 148.625 174.017C148.351 168.588 148.609 163.176 148.85 157.747C148.947 155.636 149.189 153.542 150.107 151.593C150.171 151.448 150.204 151.271 150.252 151.109C150.252 151.093 150.22 151.045 150.171 150.981L150.187 151.029Z" fill="black"/>
<path d="M109.913 114.041L109.204 114.009C109.204 112.8 109.204 111.64 109.204 110.481C109.236 108.564 108.721 106.808 107.657 105.148C107.432 105.213 107.206 105.277 106.981 105.358C106.24 105.583 105.579 105.503 104.935 105.036C103.517 103.988 102.067 102.99 100.65 101.959C99.1837 100.895 98.652 99.3649 98.5393 97.6412C98.4748 96.6263 99.1837 96.0141 99.8603 95.4019C100.118 95.1764 100.424 95.0153 100.73 94.8059C100.698 93.4849 100.134 92.4056 99.2803 91.4551C98.8454 90.9718 98.346 90.5368 97.8949 90.0535C96.7833 88.8937 96.1067 87.5243 95.9134 85.9295C95.849 85.4623 95.9134 84.9951 95.9134 84.5118L96.1712 84.4796L96.4772 85.9134L96.8639 83.6902H97.0411C97.0894 83.948 97.17 84.2219 97.2022 84.5118C97.2344 84.8179 97.2505 85.124 97.2827 85.5428C97.6694 84.093 97.5566 83.1586 96.8317 81.5315C97.1753 81.5101 97.809 81.9772 98.7326 82.9331C98.7326 82.2565 98.7326 82.192 98.2493 81.6443C97.8466 81.1771 97.3955 80.7422 96.9928 80.2589C96.0906 79.1795 96.0584 77.9713 96.5578 76.6664C96.8478 77.5686 97.025 78.4224 97.3794 79.1956C97.7499 80.0011 98.5715 80.3878 99.3931 80.7422C98.942 80.1622 98.491 79.5823 98.056 78.9862C97.2827 77.923 96.9928 76.747 97.2344 75.4582C97.2988 75.136 97.4277 74.846 97.5083 74.5238L97.766 74.5561C97.766 74.8783 97.7982 75.1843 97.766 75.5065C97.6049 76.9242 98.0721 78.1002 99.1192 79.0507C99.7958 79.6789 100.521 80.2589 101.294 80.9516C101.52 80.2589 101.213 79.8239 100.956 79.4212C100.408 78.5351 99.8603 77.6652 99.2642 76.8114C98.6037 75.8609 98.3782 74.8138 98.4104 73.6378L98.7648 74.1694L99.1998 72.3168C99.377 73.3317 99.2964 74.4916 99.1031 75.1038C99.0548 75.2327 99.1676 75.5549 99.1837 75.5549C99.9247 75.4421 100.15 76.2476 100.779 76.5053C100.634 75.571 100.344 74.7011 100.843 73.8633C101.085 74.7011 101.23 75.571 101.6 76.3281C101.987 77.1175 102.583 77.8102 103.211 78.6962C103.372 77.2786 103.066 76.167 102.438 75.1199C102.212 74.7333 101.906 74.395 101.681 74.0083C101.487 73.6861 101.085 73.3317 101.632 72.9451C101.697 72.8968 101.6 72.639 101.6 72.4618C101.6 72.0269 101.6 71.5919 101.745 71.1408C101.777 71.2697 101.81 71.3825 101.81 71.5113C101.777 72.5907 102.261 73.3478 103.243 73.8311C103.694 74.0567 104.113 74.3466 104.677 74.6688C104.29 73.6539 103.904 72.784 103.614 71.8819C103.42 71.2697 103.324 70.6092 103.292 69.9648C103.259 69.2882 103.565 68.7083 104.162 68.2894C103.855 69.401 103.646 70.4803 104.435 71.4952C104.242 69.3849 104.709 67.4195 105.724 65.5347C105.724 65.9213 105.756 66.2918 105.724 66.6784C105.692 67.0973 105.611 67.5 105.515 67.9028C105.209 69.2077 105.692 70.2548 106.578 71.3019C107.094 70.6253 107.045 69.9326 106.932 69.2238C106.771 68.3055 106.594 67.4034 106.916 66.3563C107.383 66.8234 107.126 67.3873 107.319 67.8383C107.512 68.3055 107.673 68.7888 107.899 69.4332L108.527 67.2423H108.672C108.833 67.8544 108.93 68.4988 109.172 69.0949C109.413 69.7232 109.784 70.3031 110.235 70.8508C109.993 69.2882 108.866 67.8383 109.687 66.0502C109.832 66.9684 109.88 67.79 110.106 68.5472C110.348 69.3204 110.783 70.0454 111.169 70.867C111.814 69.9809 111.798 69.1593 111.346 68.3216C110.847 67.4034 110.75 66.4529 110.911 65.4219C111.073 64.4875 111.636 63.8432 112.168 63.1504C111.781 65.3736 111.846 65.8085 112.748 67.0329C112.796 66.3724 112.184 65.8085 112.635 65.0514C113.119 65.7441 113.264 66.5818 114.069 67.049C113.892 65.7441 113.65 64.5198 114.359 63.3438C114.359 65.0675 114.955 66.5979 115.841 68.0478C115.841 67.0812 115.181 66.179 115.519 65.003L116.743 66.7268L116.518 64.7936L116.711 64.7292L117.806 66.8395L117.935 66.8073L117.597 65.4541C118.515 66.2596 118.87 67.3712 119.466 68.4344C120.013 68.08 120.046 67.645 119.965 67.1617C119.836 66.3401 119.675 65.5186 119.611 64.697C119.53 63.6015 119.707 62.5544 120.481 61.7006C120.626 61.5395 120.819 61.4267 121.141 61.1689C121.044 62.0389 120.867 62.7477 120.932 63.4243C120.98 64.1009 121.222 64.7775 121.447 65.4219C121.689 66.0985 122.027 66.7268 122.398 67.5645C122.478 66.7268 122.398 66.4207 121.947 65.2608C121.576 64.3587 121.882 63.2632 122.736 62.5544C122.704 63.1827 122.607 63.7626 122.655 64.3264C122.704 64.8581 122.913 65.3736 123.074 66.0502L123.88 65.0836L124.041 65.148L123.638 66.5496L123.783 66.614L124.911 64.3909C125.297 65.0353 124.911 65.6152 124.879 66.2757C125.507 65.9213 125.571 65.2125 126.119 64.7614C126.393 65.8407 125.877 66.7268 125.668 67.7256C126.538 66.8234 126.908 65.6474 127.247 62.8121C127.988 64.1815 127.746 65.4219 127.569 66.759C128.358 66.2757 128.535 65.5024 128.906 64.8419C129.11 65.1427 129.11 65.7333 128.906 66.614C129.792 65.6313 129.873 64.9869 129.405 62.8444C130.855 64.0042 131.226 66.324 130.404 67.8061C129.921 68.6922 129.792 69.5621 130.404 70.5287C131.258 69.0788 132.063 67.6772 131.79 65.8407C132.321 66.4851 132.418 67.194 132.096 68.1766C131.854 68.9499 131.548 69.7232 131.339 70.5287C131.918 70.1259 132.225 69.5299 132.434 68.9016C132.643 68.2572 132.788 67.5806 133.094 66.904L133.707 68.9982C134.319 68.1444 134.319 67.0973 134.641 66.1307C135.028 67.0329 134.867 67.935 134.705 68.8371C134.577 69.5621 134.512 70.2548 135.012 70.9797C135.833 70.142 136.316 69.2399 136.188 68.0961C136.123 67.5162 135.978 66.9362 135.898 66.3563C135.849 65.9857 135.849 65.6152 135.93 65.2125C136.478 66.1146 136.832 67.0812 136.977 68.1122C137.106 69.1432 137.138 70.1903 137.219 71.3825C137.96 70.2387 137.798 69.1432 137.444 68.0317C138.072 68.4183 138.346 68.9982 138.314 69.6426C138.282 70.3514 138.153 71.0764 137.943 71.7691C137.702 72.5907 137.331 73.3801 137.025 74.1855C138.926 73.6861 139.635 72.8807 139.973 70.9797C140.022 71.2053 140.134 71.463 140.086 71.6563C139.909 72.2685 140.086 72.8162 140.328 73.3478C141.31 72.8646 141.439 71.9141 141.681 70.9475C141.697 71.3019 141.761 71.6724 141.745 72.0269C141.729 72.3329 141.584 72.5907 141.874 72.8807C141.971 72.9773 141.89 73.3962 141.761 73.525C141.037 74.3144 141.117 75.3615 140.795 76.2798C141.584 75.7321 142.325 75.1682 142.18 74.0244C142.1 73.4606 142.18 72.8807 142.18 72.3007L142.438 72.2685L142.857 73.8472L143.195 73.4445L143.372 73.5089L142.873 75.8287C144.017 75.0877 144.065 74.8944 143.888 72.2041C144.468 72.5101 144.291 73.1062 144.548 73.7184L144.871 73.074C145.225 74.1855 144.645 75.0071 144.548 75.8771L145.418 76.7792V74.2017C146.546 75.1521 146.401 76.4087 144.855 79.84C145.902 79.3567 145.982 79.1956 146.627 76.0865C147.142 77.4558 147.303 78.6157 146.514 79.7434C146.159 80.2428 145.724 80.6938 145.306 81.161C144.887 81.6121 144.5 82.0954 144.403 82.8686C145.128 82.2404 145.515 81.4349 146.417 81.1288C145.853 82.4981 145.547 83.8674 145.95 85.3334L146.208 83.4164H146.401L146.772 85.6556L147.094 84.2541C147.48 85.0273 147.4 85.7845 147.19 86.5416C146.836 87.8304 146.24 88.9903 145.273 89.9247C144.855 90.3274 144.42 90.7463 144.017 91.1651C143.147 92.0995 142.631 93.211 142.519 94.4837C143.034 94.9348 143.534 95.3375 144.001 95.7886C144.613 96.3846 144.822 97.1418 144.677 97.9795C144.387 99.5905 143.791 101.008 142.325 101.959C141.165 102.716 140.038 103.505 138.958 104.359C137.943 105.164 136.912 105.664 135.64 104.939C134.56 106.501 134.045 108.193 134.045 110.03C134.045 111.109 134.045 112.172 134.045 113.251C134.045 113.735 133.948 114.137 133.465 114.395C133.401 114.331 133.288 114.25 133.288 114.186C133.352 112.22 133.401 110.255 133.529 108.29C133.61 107.065 134.206 105.986 134.754 104.907C135.012 104.407 135.205 103.924 135.221 103.344C135.221 102.893 135.463 102.442 135.608 101.926C136.252 102.329 135.849 102.845 135.994 103.215C136.155 103.634 136.333 104.037 136.477 104.407C137.09 104.633 137.541 104.536 138.008 104.214C139.409 103.215 140.859 102.265 142.277 101.282C143.614 100.348 144.081 98.9461 144.162 97.4318C144.21 96.4974 143.501 95.9175 142.792 95.4825C142.245 95.1442 141.584 94.9831 140.972 94.7576C140.827 94.7092 140.602 94.7092 140.489 94.7898C139.764 95.2409 139.039 95.6919 138.346 96.1913C137.96 96.4652 137.67 96.8679 136.961 96.9001L138.314 95.3053L138.201 95.1764L136.365 96.0947L136.204 95.9336C137.235 94.6126 138.169 93.2594 137.654 91.4068L136.268 92.6955L136.075 92.5344C136.365 91.8256 136.912 91.2457 137.364 90.6335C137.831 89.9891 137.831 89.9891 137.702 89.087L137.106 89.5058C137.17 89.0547 137.17 88.7003 137.283 88.4104C137.75 87.331 137.734 86.1872 137.766 85.0434C137.798 83.5775 137.798 82.1437 137.122 80.7905C136.622 79.7917 136.026 78.8735 135.012 78.3096C134.899 78.2452 134.77 78.2452 134.48 78.1646C135.173 78.8735 136.091 79.1795 136.123 80.3394C135.865 80.1944 135.672 80.13 135.559 80.0011C135.028 79.3245 134.303 78.9218 133.513 78.6318C132.45 78.2452 131.306 78.0357 130.34 77.488C128.97 76.7309 127.376 76.6664 126.087 75.7965C126.828 75.0394 127.521 74.9427 128.616 75.4582C128.68 75.4904 128.745 75.5065 128.809 75.5226C129.647 75.6193 130.485 75.716 131.484 75.8287C131.145 75.6515 130.936 75.5226 130.71 75.426C128.423 74.4916 126.022 74.0728 123.606 73.6217C121.947 73.3156 120.384 73.67 118.789 73.8633C116.115 74.2017 113.473 74.7011 110.96 75.7321C110.767 75.8126 110.589 75.8932 110.187 76.0865C110.622 76.1187 110.911 76.2154 111.04 76.1187C111.669 75.6515 112.345 75.7804 113.022 75.9093C113.553 75.1521 114.536 75.2166 115.728 76.1831C114.842 76.4731 114.037 76.7148 113.247 77.0047C112.394 77.3108 111.556 77.6491 110.718 77.9713C110.074 78.2291 109.462 78.519 108.801 78.7285C107.738 79.0829 106.739 79.5178 106.014 80.4361C105.934 80.5327 105.805 80.5811 105.595 80.6938C105.595 79.4534 106.594 79.1312 107.367 78.4063C106.562 78.6157 106.03 78.9218 105.628 79.4212C104.548 80.7905 103.855 82.3048 103.904 84.0769C103.904 84.6568 103.936 85.2529 103.904 85.8328C103.807 87.4277 104.307 88.8131 105.305 90.0535C105.756 90.6174 106.191 91.2134 106.61 91.7934C106.852 92.1156 107.061 92.47 107.19 92.8727C106.352 92.6311 105.934 91.9223 105.434 91.3101C104.951 90.6979 104.5 90.0535 103.888 89.1997C103.855 89.8763 103.823 90.3435 103.807 90.8107C103.807 91.2296 103.888 91.6484 103.839 92.0511C103.614 93.8071 104.452 95.112 105.563 96.3041C105.805 96.578 106.062 96.8357 106.304 97.1096L106.175 97.2868C105.837 97.0935 105.434 96.9485 105.176 96.6746C104.725 96.1913 104.113 95.9175 103.63 95.5147C102.776 94.8059 101.987 95.0798 101.133 95.4181C100.215 95.7725 99.5542 96.4007 99.1837 97.3029C99.1031 97.5123 99.087 97.7862 99.1353 98.0117C99.4092 99.5099 99.8603 100.879 101.262 101.765C102.599 102.619 103.904 103.537 105.193 104.456C106.336 105.277 107.061 104.907 107.335 103.457C107.4 103.118 107.335 102.748 107.448 102.377C107.947 102.732 107.996 103.215 108.092 103.715C108.189 104.182 108.237 104.681 108.479 105.068C109.607 107.017 110.074 109.095 109.993 111.318C109.961 112.237 109.993 113.171 109.993 114.154L109.913 114.041ZM139.909 73.7023C138.62 75.1521 138.088 76.6987 138.411 78.2774L139.909 73.7023ZM144.468 76.312C144.242 76.9081 144.065 77.5202 143.791 78.068C143.501 78.6318 143.115 79.1151 142.76 79.6467C144.017 78.8896 144.983 77.9874 144.484 76.312H144.468ZM108.447 68.8371C108.237 70.3031 109.301 71.1086 109.542 72.2041L109.752 72.1235L108.447 68.821V68.8371ZM132.015 71.0764C132.595 70.3998 133.175 69.7232 132.998 68.5633L132.015 71.0764ZM132.611 72.349L132.853 72.3813L133.094 70.867L132.869 70.8347L132.627 72.349H132.611ZM108.608 71.1891L108.366 71.2214L108.592 72.6712L108.833 72.639L108.592 71.2053L108.608 71.1891Z" fill="black"/>
<path d="M120.997 9.84375C121.689 11.2453 123.091 11.503 124.057 10.3593C124.412 9.94041 124.766 10.0048 125.153 10.0532C126.893 10.3109 128.649 10.5204 130.356 10.8909C132.434 11.3581 134.513 11.9219 136.558 12.5341C138.782 13.2107 140.505 14.6605 141.923 16.4487C143.614 18.5913 144.017 21.9421 141.81 24.4713C141.52 24.8096 141.23 25.1479 140.908 25.4862C139.426 27.0166 137.589 27.4194 135.592 26.9039C133.288 26.3078 131.033 25.5829 128.745 24.8741C124.508 23.5692 120.288 23.3597 116.035 24.7774C113.683 25.5668 111.299 26.2595 108.898 26.8878C107.851 27.1616 106.723 27.2422 105.628 27.2583C104.162 27.2744 103.018 26.5817 102.374 25.2607C101.375 23.2309 100.956 21.0722 101.359 18.8168C101.504 18.0275 101.81 17.3186 102.438 16.7548C103.018 16.2232 103.485 15.5627 104.033 14.9827C105.225 13.694 106.659 12.7596 108.27 12.083C110.574 11.1003 112.99 10.5687 115.471 10.2626C117.017 10.0693 118.564 9.98874 120.11 9.85986C120.417 9.82764 120.723 9.85986 121.013 9.85986L120.997 9.84375Z" fill="black"/>
<path d="M170.808 302.523C169.487 302.121 168.166 301.718 166.812 301.476C162.366 300.638 157.855 300.284 153.345 300.058C148.512 299.817 122.736 299.72 119.079 299.607C110.719 299.752 103.534 299.865 96.381 300.59C95.8655 300.638 95.3661 300.719 94.8667 300.783C94.8506 301.073 94.7861 301.347 94.7056 301.605H95.5594V301.911H95.7849V302.781H96.4293V303.78H95.7849V303.86H94.1417V304.134H92.6597C92.1764 304.344 91.6447 304.489 91.0004 304.489C90.8715 304.489 90.7748 304.456 90.6621 304.456C90.5332 304.456 90.4204 304.489 90.2915 304.489C90.211 304.489 90.1627 304.473 90.0821 304.473C89.5666 304.73 88.9705 304.907 88.2456 304.907C87.9879 304.907 87.7462 304.875 87.5207 304.827C87.3596 304.908 87.2468 305.02 87.0696 305.069C87.1663 305.101 87.2629 305.133 87.3757 305.165C90.6943 306.003 68.3663 306.792 71.7654 307.002C76.3889 307.292 106.723 307.324 111.347 307.421C118.419 307.566 146.45 307.549 153.522 307.098C157.823 306.825 162.124 306.502 166.377 305.777C167.859 305.52 169.325 305.085 170.775 304.65C171.307 304.489 172.016 304.263 171.984 303.554C171.967 302.926 171.307 302.684 170.791 302.539L170.808 302.523Z" fill="black"/>
<path d="M115.053 264.956L116.084 264.779C115.601 262.137 114.215 260.236 111.799 259.205C110.285 258.561 108.69 258.077 107.127 257.53C106.902 257.449 106.66 257.417 106.435 257.32C104.26 256.434 102.004 255.79 99.7329 255.194C99.3141 255.081 98.9274 254.904 98.3153 254.662C98.6375 254.533 98.7663 254.42 98.8469 254.453C102.923 255.757 106.998 257.03 111.042 258.399C112.008 258.722 112.895 259.302 113.764 259.849C114.908 260.574 115.633 261.654 116.1 262.926C116.294 263.474 116.535 264.006 116.745 264.521C117.378 264.36 117.942 264 118.436 263.442C118.372 262.765 118.114 262.153 117.711 261.573C116.423 259.753 114.844 258.222 113.168 256.772C112.782 256.434 112.379 256.08 111.944 255.822C111.509 255.564 111.026 255.258 110.543 255.21C107.449 254.968 104.517 254.114 101.618 253.083C101.038 252.874 100.426 252.713 99.8457 252.519C99.6685 252.455 99.5074 252.358 99.3463 252.278L99.3946 252.052C99.7329 252.101 100.087 252.101 100.426 252.197C101.682 252.568 102.955 252.906 104.179 253.357C106.048 254.05 107.981 254.356 109.93 254.565C110.913 254.662 111.783 254.968 112.588 255.596C114.989 257.433 117.115 259.543 118.92 262.282C119.032 261.621 119.209 261.154 119.177 260.687C119.032 258.512 119.435 256.498 120.579 254.63C120.627 254.549 120.643 254.436 120.675 254.34C120.675 254.275 120.675 254.211 120.675 254.018C120.128 253.808 119.532 253.518 118.92 253.341C113.748 251.939 108.835 249.829 103.857 247.88C102.665 247.413 101.553 246.8 100.393 246.253C100.039 246.092 99.8296 245.898 99.9907 245.351C100.474 245.544 100.941 245.721 101.392 245.931C105.226 247.848 109.302 249.169 113.249 250.796C113.829 251.037 114.248 250.892 114.699 250.602C115.859 249.845 117.099 249.781 118.372 250.167C118.823 250.296 119.258 250.554 119.612 250.86C120.708 251.794 121.835 252.084 123.237 251.456C124.461 250.908 125.766 250.586 127.023 250.087C129.455 249.136 131.888 248.138 134.304 247.155C134.675 246.994 135.045 246.817 135.448 246.639C135.738 247.219 135.529 247.509 135.029 247.719C134.079 248.121 133.16 248.605 132.194 248.975C130.261 249.7 128.295 250.377 126.362 251.07C125.202 251.488 124.042 251.907 122.882 252.326V253.325C123.527 253.599 124.107 253.567 124.719 253.373C128.376 252.262 132.049 251.198 135.754 250.103C136.044 250.522 135.609 250.602 135.303 250.715C133.966 251.182 132.629 251.666 131.276 252.052C129.455 252.584 127.603 253.019 125.782 253.502C125.46 253.583 125.138 253.679 124.703 253.808C125.363 254.146 125.895 254.485 126.459 254.694C126.717 254.791 127.071 254.678 127.361 254.581C130.084 253.712 132.806 252.825 135.529 251.956C135.738 251.891 135.964 251.891 136.431 251.827C136.157 252.133 136.076 252.342 135.931 252.391C134.143 252.987 132.339 253.583 130.535 254.163C129.455 254.501 128.36 254.823 127.135 255.177L128.328 256.45C129.745 255.999 131.179 255.564 132.613 255.065C134.014 254.581 135.4 253.985 136.962 253.969C136.962 254.533 136.624 254.501 136.334 254.581C133.821 255.339 131.324 256.096 128.682 256.885C129.761 258.238 130.357 259.688 130.535 261.38C132.097 260.848 133.547 260.349 135.013 259.865C136.189 259.479 137.397 259.157 138.573 258.786C138.992 258.657 139.234 258.786 139.33 259.237C136.447 260.171 133.563 261.09 130.728 262.008C130.631 263.635 130.583 265.182 130.454 266.728C130.341 268.21 130.019 269.676 130.051 271.158C130.067 272.769 130.325 274.38 130.551 275.975C131.227 280.631 131.807 285.286 131.678 290.007C131.63 291.859 130.937 293.277 129.101 293.986C128.618 294.163 128.118 294.372 127.715 294.678C127.2 295.081 126.684 295.081 126.153 294.872C123.559 293.889 121.417 292.455 120.144 289.813C118.34 286.06 117.083 282.129 115.939 278.134C115.214 275.572 114.505 273.011 113.797 270.466C113.764 270.337 113.684 270.224 113.603 270.063C112.572 270.643 111.574 271.174 110.591 271.738C108.513 272.914 106.483 274.171 104.356 275.234C101.392 276.7 98.3797 278.085 95.1256 278.81C94.2556 279.004 93.4179 279.358 92.548 279.567C90.9693 279.97 89.3744 280.147 87.7312 279.906C86.7163 279.761 86.0075 279.245 85.4759 278.44C84.026 276.201 84.1871 273.365 86.0558 271.464C87.1835 270.321 88.5367 269.386 89.8577 268.436C93.0474 266.116 96.2532 263.861 99.4591 261.557C100.007 261.154 100.522 260.687 101.134 260.171C99.8779 259.463 98.5086 259.543 97.3165 259.028C97.3487 258.48 97.687 258.416 98.0897 258.512C98.7986 258.657 99.5074 258.802 100.216 258.979C103.019 259.72 105.806 260.461 108.609 261.219C109.173 261.364 109.737 261.557 110.269 261.782C112.186 262.54 112.46 262.862 113.072 264.859H114.36C113.958 262.346 112.298 260.929 110.108 260.188C108.029 259.479 105.838 259.076 103.712 258.496C101.988 258.029 100.265 257.497 98.5569 256.982C98.4442 256.95 98.3636 256.821 98.0897 256.595C98.573 256.643 98.8469 256.627 99.0885 256.692C102.198 257.497 105.291 258.303 108.4 259.108C109.673 259.43 110.897 259.882 112.025 260.574C113.378 261.412 114.328 262.54 114.795 264.054C114.876 264.312 114.973 264.569 115.102 264.94L115.053 264.956ZM129.89 263.683H129.729C129.729 263.087 129.761 262.491 129.729 261.911C129.616 259.785 128.763 257.997 127.264 256.466C126.878 256.064 126.475 255.967 125.959 256.08C124.026 256.531 122.77 257.868 122.286 260.01C121.948 261.509 122.045 263.023 122.56 264.505C123.301 266.631 123.752 268.822 123.946 271.078C124.381 276.184 124.316 281.291 123.801 286.398C123.656 287.88 123.527 289.362 123.511 290.844C123.511 291.875 123.897 292.842 124.783 293.422C125.959 294.195 127.216 294.63 128.489 293.518C128.698 293.341 128.956 293.228 129.197 293.1C129.922 292.681 130.39 292.052 130.599 291.247C130.712 290.78 130.776 290.297 130.776 289.813C130.857 286.253 130.551 282.709 130.083 279.165C129.81 277.038 129.616 274.896 129.197 272.801C128.891 271.303 128.972 269.869 129.246 268.404C129.536 266.841 129.681 265.262 129.874 263.683H129.89ZM104.501 274.251C104.501 271.287 103.631 268.661 102.182 266.164C100.168 267.598 98.5247 269.225 97.1393 271.174C96.0116 272.785 94.755 274.3 93.4824 275.798C92.693 276.732 91.7103 277.457 90.4699 277.699C89.9866 277.795 89.455 277.924 89.0039 277.538C89.0683 277.457 89.1006 277.377 89.1489 277.36C89.2294 277.312 89.3422 277.248 89.4389 277.248C91.227 277.199 92.4353 276.136 93.4985 274.863C94.4812 273.671 95.5122 272.479 96.3499 271.174C98.2831 268.21 101.022 266.132 103.809 264.07C104.872 263.281 105.967 262.507 107.159 261.637C105.371 261.186 103.776 260.768 102.182 260.381C101.972 260.333 101.618 260.445 101.457 260.606C99.7007 262.395 97.542 263.667 95.5605 265.149C92.9024 267.115 90.1799 269.016 87.5057 270.965C87.0707 271.287 86.6358 271.674 86.3297 272.109C84.8154 274.203 84.8315 276.023 85.9914 277.989C86.378 278.633 86.9258 279.165 87.699 279.181C89.0039 279.197 90.3571 279.278 91.6137 279.004C95.7216 278.085 99.7007 276.748 103.454 274.815C103.825 274.622 104.163 274.412 104.517 274.219L104.501 274.251ZM116.745 278.134C117.84 282.048 118.984 285.834 120.837 289.378C121.272 290.2 121.819 290.957 122.335 291.73C122.448 291.891 122.657 291.972 122.77 292.052C122.77 291.021 122.657 290.007 122.786 289.024C123.382 284.433 123.64 279.809 123.543 275.186C123.543 274.88 123.495 274.59 123.462 274.219C120.547 274.461 118.597 276.168 116.745 278.15V278.134ZM121.594 254.179C121.288 254.791 121.03 255.355 120.756 255.902C120.16 257.062 119.838 258.254 119.854 259.575C119.854 260.397 119.757 261.219 119.628 262.04C119.258 264.118 118.114 265.165 116.02 265.375C115.102 265.472 114.183 265.52 113.201 265.6L114.409 270.014C116.712 267.888 119.322 266.535 122.19 265.552C122.109 265.214 122.061 264.956 121.98 264.698C121.465 263.232 121.368 261.734 121.642 260.22C122.029 258.061 123.14 256.482 125.251 255.677C125.46 255.596 125.653 255.516 125.911 255.403C124.59 254.469 123.156 254.066 121.626 254.195L121.594 254.179ZM103.277 265.246C105.065 267.679 105.661 270.449 106.161 273.365L107.691 272.495C107.546 269.386 106.644 266.648 104.872 264.134L103.277 265.246ZM115.392 273.478C117.647 271.384 120.096 269.934 122.947 269.161C122.915 268.5 123.027 267.888 122.576 267.308C119.564 268.114 117.035 269.692 114.86 271.867L115.392 273.478ZM107.691 262.137L106.241 263.12C107.739 265.729 109.431 268.194 109.431 271.319C110.72 270.933 110.687 270.627 110.543 269.676C110.398 268.693 110.204 267.711 109.93 266.744C109.479 265.117 108.932 263.522 107.675 262.137H107.691ZM116.326 276.394C118.323 274.396 120.547 272.898 123.35 272.334L123.269 270.965C123.027 270.997 122.882 270.981 122.754 271.029C120.45 271.803 118.34 272.914 116.551 274.606C115.859 275.266 115.859 275.282 116.31 276.41L116.326 276.394ZM113.426 269.128C113.056 267.63 112.733 266.196 112.315 264.779C112.17 264.296 111.863 263.861 111.574 263.442C111.235 262.958 110.72 262.733 109.979 262.636C111.219 264.94 111.944 267.276 112.315 269.821L113.426 269.128ZM121.996 252.793C121.996 252.793 121.884 252.697 121.819 252.68C120.675 252.471 119.661 252.117 118.823 251.215C118.146 250.473 115.794 250.216 114.795 251.311C114.924 251.376 115.037 251.424 115.15 251.472C117.115 252.117 119.065 252.745 121.03 253.373C121.223 253.438 121.433 253.47 121.626 253.438C122.045 253.389 122.109 253.132 121.98 252.777L121.996 252.793Z" fill="black"/>
<path d="M134.64 125.157L135.945 123.949C137.491 124.529 139.07 125.093 140.632 125.705C145.336 127.541 149.831 129.797 154.197 132.326C155.324 132.986 156.42 133.743 157.435 134.549C158.772 135.596 159.883 136.853 160.689 138.399C162.332 141.557 163.283 144.923 164.185 148.339C165.908 154.879 167.681 161.404 169.565 167.896C170.323 170.506 171.45 173.019 172.336 175.596C173.174 178.045 173.947 180.51 174.704 182.991C175.268 184.859 176.348 186.293 177.926 187.421C179.36 188.452 180.842 189.402 182.453 190.127C187.044 192.189 191.636 194.251 196.243 196.281C198.096 197.103 199.707 198.23 201.237 199.632L200.448 201.017C198.466 199.439 196.227 198.44 193.955 197.554C190.798 196.329 187.608 195.25 184.467 193.993C181.905 192.962 179.441 191.722 177.25 189.966C175.526 188.581 174.205 186.873 173.158 184.94C171.112 181.17 169.501 177.191 168.051 173.18C167.262 170.973 166.762 168.669 166.15 166.414C165.184 162.854 164.233 159.277 163.25 155.733C162.01 151.255 160.802 146.744 159.448 142.298C158.643 139.672 157.161 137.481 154.744 135.95C152.054 134.243 149.267 132.745 146.448 131.295C143.258 129.652 140.02 128.105 136.814 126.478C136.09 126.107 135.397 125.656 134.607 125.189L134.64 125.157Z" fill="black"/>
<path d="M134.011 114.508C134.784 114.637 135.074 115.088 135.171 115.668C135.251 116.248 135.3 116.828 135.332 117.424C135.428 119.147 135.428 120.887 135.606 122.595C135.686 123.449 135.428 124.013 134.768 124.431C133.479 125.237 132.239 126.123 130.869 126.767C128.759 127.766 126.584 128.652 124.393 129.49C122.364 130.279 120.301 129.844 118.272 129.393C116.435 128.974 114.728 128.233 113.133 127.251C111.876 126.477 110.684 125.559 109.492 124.689C108.525 123.996 108.058 123.094 108.187 121.838C108.413 119.711 108.558 117.569 108.751 115.442C108.831 114.604 109.315 114.363 110.024 114.862C110.507 115.184 110.958 115.587 111.345 116.022C111.973 116.747 112.746 117.263 113.6 117.649C118.868 119.937 124.136 120.243 129.371 117.536C131.031 116.683 132.754 115.942 134.027 114.492L134.011 114.508ZM121.01 124.415C120.849 125.462 120.688 126.445 120.559 127.428C120.527 127.653 120.543 127.911 120.608 128.137C120.753 128.717 121.3 129.023 121.88 128.91C122.38 128.813 122.637 128.443 122.589 127.83C122.557 127.492 122.444 127.154 122.38 126.816C122.267 126.236 122.154 125.672 122.09 125.092C122.009 124.351 122.009 124.335 121.01 124.415ZM133.06 124.125C133.399 123.11 132.545 118.551 131.949 117.891L133.06 124.125ZM130.338 125.736C130.724 124.77 130.064 121.516 129.081 119.888L130.338 125.736ZM123.991 121.113L124.828 127.267L125.054 127.234C124.796 125.189 124.861 123.078 123.974 121.129L123.991 121.113ZM118.497 127.331H118.852V121.934H118.723L118.497 127.331ZM112.392 118.439H112.166C111.779 120.533 111.473 122.659 111.957 124.802C112.005 123.755 111.957 122.708 112.021 121.661C112.086 120.581 112.263 119.518 112.392 118.439ZM127.454 126.51L127.68 126.461C127.293 124.447 126.923 122.434 126.536 120.42L126.246 120.468C126.729 122.466 126.842 124.528 127.438 126.51H127.454ZM121.59 122.305C121.188 122.273 120.833 122.627 120.817 123.078C120.801 123.513 121.107 123.884 121.542 123.916C121.912 123.948 122.186 123.658 122.235 123.191C122.283 122.74 121.993 122.337 121.59 122.305ZM113.938 125.913L114.309 119.856C113.842 121.854 113.584 123.868 113.938 125.913ZM116.226 126.493L116.628 121.016C116.081 122.82 115.936 124.641 116.226 126.493ZM109.911 123.465L110.024 123.497V121.677H109.911V123.465ZM110.185 118.632L110.136 118.664V119.55H110.185V118.632Z" fill="black"/>
<path d="M48.4714 198.793C48.2137 198.922 47.9237 199.035 47.6982 199.212C45.7328 200.743 43.7996 202.273 41.7698 203.884L40.8516 203.143C40.8838 203.03 40.8677 202.95 40.916 202.917C41.9148 201.983 42.9458 201.049 43.9446 200.098C48.5198 195.733 53.0949 191.367 57.6378 186.969C59.281 185.39 60.8759 183.763 62.4224 182.088C64.3394 180.026 65.6121 177.577 66.192 174.806C67.1747 170.134 68.7213 165.624 69.9456 161.016C71.0733 156.844 72.6037 152.816 73.9891 148.725C74.118 148.338 74.2952 147.951 74.3757 147.549C75.149 143.731 76.8888 140.332 78.9831 137.093C80.4813 134.79 82.5433 133.195 85.0887 132.164C88.0045 130.988 90.8881 129.764 93.7879 128.555C97.928 126.848 102.068 125.124 106.225 123.432C106.724 123.223 107.256 123.062 107.868 122.853L108.206 123.932C107.207 124.335 106.241 124.705 105.306 125.124C101.649 126.751 98.0086 128.41 94.3517 130.037C92.9985 130.633 91.6131 131.149 90.2437 131.745C85.137 133.952 81.4157 137.593 79.1442 142.667C78.1615 144.874 77.2755 147.114 76.3733 149.369C75.3423 151.93 74.3757 154.524 73.3608 157.086C71.5888 161.532 70.3644 166.123 69.4301 170.795C69.0112 172.857 68.544 174.919 68.0285 176.949C67.4486 179.269 66.2565 181.282 64.7099 183.087C62.3902 185.793 60.1187 188.548 57.4445 190.916C54.7542 193.3 51.9833 195.588 49.2608 197.94C48.9708 198.197 48.7292 198.52 48.4553 198.81L48.4875 198.777L48.4714 198.793Z" fill="black"/>
<path d="M32.2479 209.074C34.4884 209.074 35.3152 209.607 35.4486 209.874C35.8486 210.141 36.7288 210.754 37.0489 211.074C37.3689 211.394 38.7826 214.942 39.4494 216.675C38.2491 217.742 35.5286 220.036 34.2483 220.676C32.968 221.316 31.581 221.476 31.0476 221.476C26.3799 220.009 16.6444 217.075 15.044 217.075C13.0436 217.075 9.443 217.475 9.04289 217.075C8.72281 216.755 9.97642 215.608 10.6432 215.075C9.84307 214.942 8.08269 214.595 7.44255 214.275C6.64238 213.875 7.84264 213.475 8.24272 212.674C8.64281 211.874 7.44241 212.674 6.24215 212.274C5.0419 211.874 6.24215 211.874 7.04232 211.074C7.84249 210.274 12.2434 209.474 13.8438 209.074C15.1241 208.754 15.1774 208.94 15.044 209.074C15.3108 209.074 16.0843 208.994 17.0445 208.674C18.0047 208.354 20.6452 209.074 21.8455 209.474C21.4454 208.94 20.4852 207.713 19.8451 207.073C19.0449 206.273 16.2443 207.073 14.6439 207.073C13.0436 207.073 9.84308 207.073 9.443 206.273C9.04291 205.473 18.2449 203.873 19.8452 203.873C21.4456 203.873 23.8461 205.873 25.4464 207.073C27.0468 208.273 29.4473 209.074 32.2479 209.074Z" fill="white"/>
<path d="M208.227 202.076C206.071 202.685 205.42 203.423 205.364 203.716C205.052 204.081 204.371 204.911 204.15 205.306C203.929 205.701 203.532 209.499 203.361 211.348C204.806 212.049 208.047 213.518 209.453 213.786C210.859 214.054 212.238 213.832 212.751 213.687C216.845 211.007 225.418 205.539 226.958 205.105C228.883 204.561 232.032 204.766 232.308 204.273C232.529 203.878 231.436 202.316 230.65 201.984C231.384 201.638 232.562 201.154 233.091 200.672C233.752 200.069 232.91 199.683 232.308 199.022C231.706 198.36 232.445 199.382 233.491 198.671C234.538 197.96 234.016 197.708 233.029 197.156C232.041 196.603 227.588 197.028 225.94 197.078C224.62 197.117 224.62 197.312 224.784 197.404C224.528 197.476 223.762 197.609 222.75 197.562C221.739 197.515 219.394 198.925 218.347 199.636C218.587 199.014 219.178 197.572 219.62 196.782C220.173 195.795 223.086 195.804 224.626 195.37C226.166 194.935 229.246 194.066 229.414 193.187C229.582 192.308 220.291 193.267 218.751 193.702C217.211 194.137 215.444 196.714 214.23 198.304C213.016 199.894 210.923 201.316 208.227 202.076Z" fill="white"/>
<path d="M47.2461 215.611C45.2646 216.288 43.4281 216.949 41.5594 217.545C41.0761 217.706 40.5123 217.802 40.029 217.706C39.3524 217.561 38.9335 217.802 38.4825 218.237C37.8059 218.882 37.097 219.494 36.3721 220.074C34.2456 221.717 31.8936 222.104 29.3483 221.266C26.8513 220.46 24.3704 219.655 21.8573 218.882C21.1163 218.656 20.3108 218.608 19.5375 218.431C18.136 218.108 16.7345 217.754 15.3329 217.384C14.463 217.158 13.6253 217.384 12.7715 217.545C12.0627 217.69 11.3538 217.883 10.645 218.012C10.1295 218.108 9.61399 218.06 9.16292 217.706C8.58297 217.255 8.53464 216.771 9.01793 216.208C9.17903 216.03 9.37234 215.869 9.54955 215.724C9.71064 215.595 9.87174 215.483 10.1778 215.273C9.64621 215.241 9.25957 215.225 8.87294 215.193C8.66352 215.193 8.45409 215.193 8.26078 215.128C7.21365 214.822 7.00422 213.936 7.7936 212.97C7.40696 212.921 7.03644 212.889 6.68203 212.808C6.11819 212.68 5.76378 212.309 5.68323 211.745C5.60268 211.214 5.84433 210.795 6.32762 210.553C6.85924 210.295 7.39086 210.038 7.93858 209.876C9.22736 209.506 10.5322 209.2 11.8371 208.845C13.0776 208.507 14.318 208.233 15.5907 208.668C15.6873 208.7 15.8001 208.749 15.8967 208.717C17.2983 208.394 18.6354 208.813 20.0047 208.958C20.2947 208.99 20.6008 208.958 21.0035 208.958C20.1497 207.831 19.2637 207.122 17.7816 207.251C15.7195 207.428 13.6414 207.428 11.5633 207.444C10.9994 207.444 10.4034 207.283 9.85563 207.122C9.37234 206.977 9.01793 206.671 9.05015 206.075C9.06626 205.495 9.45289 205.285 9.88785 205.172C11.2572 204.834 12.6265 204.48 14.0119 204.222C15.6068 203.932 17.2177 203.755 18.8126 203.465C20.053 203.239 21.1807 203.32 22.244 204.125C23.6133 205.172 25.0954 206.075 26.4647 207.122C27.7535 208.104 29.1872 208.555 30.7821 208.62C31.8453 208.652 32.9085 208.781 34.1329 208.878C34.7289 207.734 35.8083 206.832 36.9037 205.962C38.0153 205.092 38.8369 203.884 40.2706 203.32C41.3178 204.158 42.3649 205.027 43.0898 206.171C44.6364 208.62 46.0701 211.149 46.8434 213.984C46.9723 214.484 47.0689 214.983 47.23 215.628L47.2461 215.611ZM9.71064 205.881C9.6301 206.461 10.0006 206.558 10.3228 206.638C10.7578 206.751 11.2088 206.832 11.6438 206.816C13.8186 206.751 15.9934 206.671 18.1521 206.558C19.022 206.51 19.7792 206.687 20.4397 207.283C20.9713 207.766 21.5835 208.185 22.0667 208.717C22.4212 209.103 22.8078 209.135 23.2589 209.135C24.1288 209.135 24.9826 209.103 25.8525 209.168C26.5613 209.216 27.2541 209.377 27.7051 210.215C27.4151 210.247 27.2379 210.328 27.1091 210.279C25.8525 209.78 24.5476 209.812 23.2266 209.78C22.1312 209.748 21.0196 209.667 19.9242 209.57C19.0703 209.49 18.2165 209.345 17.3627 209.28C16.7183 209.216 16.074 209.184 15.3974 209.715C15.7034 209.957 15.929 210.215 16.2189 210.344C16.5572 210.505 16.9439 210.569 17.3144 210.634C19.312 210.972 21.3257 211.342 23.3394 211.632C24.2093 211.761 25.0148 212.019 25.7559 212.47C27.0607 213.259 28.3495 214.049 29.6383 214.854C29.7994 214.951 29.896 215.177 30.0088 215.338L29.8638 215.563C29.5255 215.45 29.1711 215.37 28.865 215.193C27.9307 214.661 27.0285 214.097 26.1264 213.533C25.2726 213.002 24.4188 212.502 23.4038 212.341C21.6318 212.051 19.8597 211.761 18.0877 211.487C17.9588 211.471 17.8138 211.455 17.6688 211.471C17.5722 211.471 17.4594 211.504 17.2822 211.52C18.281 212.1 19.3925 212.148 20.2464 212.825C19.8275 213.453 19.4087 213.147 19.0542 213.034C18.1199 212.776 17.2338 212.406 16.2995 212.148C15.3329 211.874 14.3663 211.794 13.3514 212.116C12.0788 212.518 10.7578 212.776 9.45289 213.098C8.84072 213.259 8.16412 213.34 7.80971 213.952C8.00302 214.419 8.32522 214.58 8.74407 214.564C9.35623 214.548 9.98451 214.532 10.5967 214.484C12.2399 214.371 13.883 214.097 15.5423 214.323C16.4606 214.452 17.3949 214.516 18.3132 214.629C18.5871 214.661 18.877 214.709 19.1026 214.838C19.2314 214.919 19.312 215.16 19.3281 215.338C19.3281 215.402 19.0865 215.531 18.9254 215.547C18.7965 215.563 18.6676 215.483 18.5226 215.467C17.4272 215.305 16.3478 215.112 15.2524 214.983C13.287 214.742 11.5471 215.579 9.8073 216.288C9.56566 216.385 9.40456 216.675 9.06626 217.029C9.51733 217.174 9.75897 217.303 10.0167 217.303C10.5 217.303 10.9833 217.239 11.4505 217.126C13.2387 216.659 15.0429 216.417 16.8633 216.884C18.7643 217.384 20.6652 217.883 22.55 218.431C24.9343 219.123 27.3024 219.864 29.6866 220.557C31.9581 221.218 34.0523 220.863 35.9049 219.301C36.7426 218.592 37.5803 217.851 38.4341 217.158C38.7724 216.868 38.853 216.546 38.7241 216.143C38.3375 214.854 37.9186 213.566 37.1293 212.454C35.9694 210.827 34.5195 209.586 32.4091 209.441C31.9258 209.409 31.4426 209.393 30.9593 209.393C29.1228 209.441 27.5118 208.894 26.0458 207.782C24.5476 206.671 23.0011 205.624 21.4868 204.544C20.7941 204.045 20.0691 203.916 19.2314 204.061C17.4916 204.351 15.7518 204.56 14.0119 204.834C12.5459 205.06 11.0961 205.301 9.67843 205.913L9.71064 205.881ZM14.8335 209.135C14.2213 209.168 13.6897 209.135 13.2064 209.248C11.3699 209.683 9.53344 210.134 7.69694 210.634C7.31031 210.73 6.92368 210.956 6.60148 211.197C6.15041 211.536 6.26318 212.051 6.81091 212.18C7.1331 212.261 7.50362 212.261 7.82582 212.18C10.5161 211.568 13.2225 211.165 15.9773 211.23C16.0095 211.23 16.0417 211.149 16.0901 211.069C15.1879 210.811 14.7691 210.215 14.8174 209.135H14.8335ZM36.1627 209.441L40.9473 205.752L40.7862 205.543C39.1108 206.671 37.4676 207.831 36.1788 209.441H36.1627ZM37.4031 210.617L37.5481 210.811L42.2682 207.557L42.1233 207.347C40.4962 208.362 38.9174 209.458 37.4031 210.634V210.617ZM39.7229 214.709C41.2372 214.79 44.3303 213.743 44.9747 213.018L39.7229 214.709ZM39.0141 213.34C40.5284 213.211 43.6376 211.89 44.3303 211.133L39.0141 213.34ZM43.0898 209.538L42.9448 209.264L41.2533 210.247L41.3661 210.44L43.0737 209.522L43.0898 209.538ZM45.6674 214.935L45.5707 214.709L44.2497 215.241L44.3303 215.45L45.6513 214.935H45.6674ZM39.4652 211.31L39.5618 211.439L40.3029 210.972L40.2062 210.827L39.4652 211.31ZM40.2223 216.256V216.417L40.9956 216.369V216.256H40.2223Z" fill="black"/>
<path d="M218.668 199.116C219.715 198.697 220.569 198.311 221.423 198.004C222.003 197.795 222.615 197.666 223.211 197.505C223.372 197.457 223.582 197.473 223.71 197.392C225.37 196.313 227.222 196.538 229.043 196.555C229.703 196.555 230.348 196.522 231.008 196.555C231.798 196.603 232.587 196.667 233.36 196.796C233.876 196.893 234.23 197.28 234.246 197.811C234.262 198.311 234.069 198.778 233.586 199.003C233.215 199.18 232.829 199.325 232.442 199.487C232.845 199.777 233.425 199.921 233.344 200.614C233.264 201.291 232.829 201.645 232.249 201.871C231.83 202.032 231.411 202.161 230.912 202.338C231.33 202.515 231.653 202.644 231.975 202.821C232.345 203.015 232.7 203.256 232.667 203.756C232.635 204.255 232.377 204.642 231.943 204.803C231.459 204.98 230.944 205.077 230.444 205.157C230.042 205.222 229.623 205.205 229.204 205.189C227.545 205.093 226.079 205.673 224.709 206.494C223.437 207.251 222.212 208.041 220.827 208.621C219.667 209.104 218.636 209.926 217.573 210.618C216.3 211.44 215.027 212.278 213.755 213.099C211.596 214.501 209.325 214.71 206.94 213.76C206.344 213.518 205.813 213.357 205.217 213.84C204.959 214.05 204.508 214.098 204.137 214.114C202.188 214.211 200.287 213.937 198.338 213.454C197.613 208.492 199.143 204.142 201.834 200.034C203.155 200.292 204.379 200.711 205.49 201.404C206.296 201.903 207.005 202.048 207.891 201.613C208.567 201.275 209.325 201.13 210.033 200.872C211.177 200.469 212.079 199.76 212.836 198.826C214.061 197.328 215.333 195.878 216.574 194.38C217.218 193.607 218.04 193.268 219.006 193.172C221.375 192.946 223.743 192.672 226.111 192.479C226.997 192.414 227.899 192.447 228.785 192.543C229.639 192.64 229.961 193.542 229.317 194.138C228.898 194.525 228.366 194.863 227.818 195.008C225.821 195.54 223.823 196.104 221.793 196.442C220.231 196.7 219.313 197.489 218.733 199.116H218.668ZM222.067 204.996C221.793 204.303 221.793 204.207 222.309 203.981C222.937 203.707 223.614 203.546 224.242 203.24C226.24 202.274 228.366 201.935 230.525 201.661C231.056 201.597 231.588 201.404 232.104 201.226C232.506 201.097 232.732 200.824 232.522 200.228C231.959 200.179 231.346 200.083 230.75 200.083C229.446 200.083 228.141 200.163 226.836 200.163C226.063 200.163 225.321 200.211 224.645 200.614C223.727 201.162 222.824 201.726 221.906 202.274C221.584 202.467 221.262 202.676 220.907 202.821C220.811 202.87 220.601 202.725 220.505 202.612C220.456 202.547 220.505 202.338 220.585 202.257C220.746 202.096 220.972 201.967 221.165 201.839C221.648 201.484 222.132 201.146 222.631 200.791L222.534 200.614C222.196 200.743 221.842 200.872 221.52 201.017C220.327 201.549 219.135 202.112 217.927 202.596C216.703 203.079 215.72 203.836 214.85 204.819C214.141 205.624 213.384 206.365 212.611 207.123C212.353 207.364 212.095 207.702 211.532 207.525C211.66 207.284 211.741 207.058 211.87 206.913C212.885 205.834 213.884 204.738 214.947 203.707C215.462 203.208 216.058 202.757 216.687 202.435C217.814 201.855 219.006 201.387 220.166 200.856C221.262 200.356 222.357 199.841 223.437 199.293C223.839 199.1 224.258 198.858 224.081 198.262C223.147 198.117 222.889 198.166 221.681 198.617C219.876 199.293 218.056 199.954 216.236 200.582C215.188 200.936 214.093 201.13 213.207 201.839C213.062 201.951 212.804 201.903 212.482 201.951C212.82 201.049 213.449 200.695 214.141 200.469C214.963 200.211 215.801 200.002 216.622 199.777C217.025 199.664 217.363 199.535 217.589 199.1C217.911 198.488 218.362 197.956 218.733 197.376C219.184 196.667 219.796 196.216 220.617 196.055C221.971 195.797 223.324 195.54 224.677 195.234C225.821 194.96 226.949 194.638 228.06 194.267C228.479 194.122 228.994 193.929 228.849 193.204C228.463 193.172 228.092 193.091 227.722 193.091C224.677 193.091 221.681 193.623 218.668 193.945C217.992 194.025 217.476 194.396 217.025 194.944C215.801 196.442 214.528 197.892 213.304 199.406C212.434 200.485 211.371 201.275 210.066 201.726C209.292 202 208.487 202.241 207.698 202.451C207.182 202.596 206.844 202.886 206.65 203.369C206.36 204.11 206.038 204.835 205.797 205.592C205.233 207.396 205.136 209.249 205.265 211.134C205.297 211.649 205.378 212.229 205.909 212.471C207.134 213.019 208.358 213.582 209.76 213.566C211.048 213.55 212.192 213.115 213.271 212.455C214.834 211.488 216.365 210.506 217.927 209.555C220.005 208.315 222.1 207.123 224.194 205.914C225.611 205.093 227.126 204.545 228.801 204.561C229.526 204.561 230.251 204.497 230.976 204.432C231.427 204.384 231.862 204.287 231.975 203.723C231.636 203.288 231.169 203.192 230.686 203.16C229.832 203.111 228.946 203.16 228.108 203.015C227.158 202.87 226.336 203.143 225.515 203.514C224.387 204.013 223.243 204.513 222.035 205.044L222.067 204.996ZM223.646 200.115C224.774 199.648 225.918 199.374 227.126 199.261C228.801 199.1 230.444 198.681 232.152 198.762C232.506 198.778 232.893 198.633 233.231 198.488C233.392 198.423 233.602 198.182 233.586 198.053C233.553 197.859 233.36 197.569 233.183 197.521C232.651 197.376 232.104 197.28 231.572 197.263C230.605 197.231 229.639 197.263 228.672 197.28C227.818 197.28 226.949 197.28 226.095 197.344C225.644 197.376 225.193 197.569 224.709 197.698C225.176 198.955 224.468 199.551 223.646 200.115ZM199.465 212.004V212.229C201.093 212.503 202.736 212.777 204.411 212.471C203.251 212.278 202.059 212.197 200.883 212.117C200.416 212.084 199.933 212.052 199.465 212.004ZM204.105 208.427C203.38 207.944 202.526 208.137 201.737 207.976C200.98 207.815 200.239 207.396 199.192 207.541C200.915 208.186 202.478 208.508 204.105 208.427ZM204.041 210.441L199.353 209.877C200.851 210.57 202.43 210.683 204.041 210.441ZM205.684 202.95L205.813 202.708C204.621 201.951 203.332 201.387 202.043 200.824L201.93 201.049L205.7 202.95H205.684ZM200.867 203.079L200.819 203.321C202.14 203.707 203.428 204.271 204.878 204.191L200.867 203.079ZM201.076 205.624C202.22 206.156 203.396 206.51 204.669 206.285L201.076 205.624Z" fill="black"/>
<path d="M145.176 241.065C145.917 247.396 147.786 253.179 151.217 258.592C150.025 258.963 148.93 259.317 147.818 259.639C146.32 260.058 144.805 260.348 143.243 260.348C141.374 260.348 140.021 259.543 139.151 257.883C137.733 255.177 136.815 252.293 136.251 249.297C136.058 248.266 136.09 247.17 136.106 246.107C136.106 245.205 136.606 244.512 137.411 244.142C139.07 243.385 140.73 242.644 142.421 241.967C143.307 241.613 144.242 241.387 145.192 241.081L145.176 241.065ZM146.03 250.022C144.999 249.861 139.473 251.536 138.732 252.148C141.261 251.407 143.646 250.715 146.03 250.022ZM148.93 257.013C146.578 257.626 144.193 258.157 141.729 258.189C144.226 258.479 146.61 257.996 148.93 257.013ZM138.168 249.523L144.338 247.718L144.258 247.477C142.196 248.057 140.069 248.411 138.168 249.506V249.523ZM147.399 254.806C146.239 254.806 145.224 255.435 144.097 255.564C142.953 255.693 141.793 255.805 140.649 255.934C142.985 256.063 145.24 255.789 147.399 254.806ZM146.642 252.1C144.548 252.696 142.47 253.292 140.375 253.904C142.566 253.711 144.644 253.083 146.642 252.1ZM138.684 246.252L144.209 244.641L144.145 244.4C142.244 244.835 140.408 245.447 138.684 246.236V246.252Z" fill="black"/>
<path d="M121.849 200.469V205.495C121.527 205.511 121.189 205.559 120.866 205.559C116.452 205.431 112.038 205.447 107.64 204.867C104.741 204.48 101.793 204.351 98.8929 203.948C96.9919 203.691 95.1071 203.207 93.2384 202.74C92.6262 202.579 92.0463 202.209 91.5308 201.822C90.7414 201.258 90.3064 200.469 90.2259 199.454C90.1131 198.149 90.1453 197.408 90.4998 196.329C91.9818 196.764 93.4317 197.263 94.946 197.585C97.1369 198.052 99.344 198.455 101.551 198.761C104.902 199.228 108.253 199.647 111.62 199.937C114.648 200.211 117.677 200.292 120.721 200.453C121.06 200.469 121.398 200.453 121.865 200.453L121.849 200.469Z" fill="black"/>
<path d="M147.22 76.5863L146.785 75.362C147.639 75.2331 148.445 75.0398 149.25 74.9915C153.986 74.7176 158.658 74.0571 163.282 73.0583C167.97 72.0595 172.658 71.0446 177.313 69.9653C181.679 68.9503 185.98 67.6938 190.072 65.8251C191.329 65.2451 192.553 64.633 193.503 63.5697C194.325 62.6515 194.728 61.5721 194.84 60.38C194.969 59.1396 194.438 58.1408 193.568 57.3353C191.86 55.7565 189.975 54.4517 187.833 53.4851C184.192 51.8419 180.342 50.9236 176.459 50.0698C173.463 49.4093 170.45 48.7972 167.438 48.2978C165.263 47.9273 163.056 47.7662 160.865 47.5406C159.19 47.3634 157.498 47.2184 155.807 47.0734C155.05 47.009 154.293 46.9607 153.535 46.9446C149.46 46.8157 145.384 46.574 141.324 46.6063C135.734 46.6546 130.144 46.9446 124.554 47.0896C122.25 47.154 119.947 47.0896 117.627 47.009C118.449 46.9285 119.27 46.8157 120.092 46.7835C126.858 46.5257 133.624 46.3163 140.39 46.0263C144.433 45.8491 148.477 46.1391 152.504 46.3324C155.533 46.4613 158.562 46.719 161.606 46.8962C165.859 47.1379 170.064 47.7178 174.236 48.4428C178.779 49.2321 183.306 50.1343 187.623 51.8902C190.185 52.9212 192.488 54.355 194.567 56.1432C196.274 57.6253 196.87 59.5262 196.258 61.7493C195.63 63.9886 194.373 65.7123 192.279 66.8078C189.105 68.4509 185.771 69.627 182.339 70.5935C176.733 72.1884 171.03 73.3805 165.312 74.5243C162.138 75.1687 158.932 75.7003 155.726 76.103C152.923 76.4413 150.104 76.7474 147.22 76.6024V76.5863Z" fill="black"/>
<path d="M44.0572 235.524C44.17 236.716 44.2022 237.924 44.3955 239.116C44.8305 241.774 46.1676 243.949 48.1329 245.754C50.9038 248.299 54.1257 249.99 57.7343 251.07C60.5857 251.907 63.5015 252.423 66.4174 252.922C70.2193 253.567 74.0372 254.227 77.8391 254.872C78.8218 255.049 79.8206 255.178 80.7872 255.387C82.2048 255.693 83.6064 256.048 85.0079 256.37C86.5383 256.724 88.0849 257.079 89.6636 257.433C89.5508 258.013 89.422 258.673 88.7615 259.108C88.246 259.431 87.7304 259.624 87.1022 259.447C85.4429 259.012 83.7514 258.657 82.0921 258.174C79.4018 257.385 76.647 256.982 73.86 256.644C69.6232 256.112 65.338 255.87 61.1334 254.984C57.7987 254.292 54.609 253.245 51.5965 251.65C50.1627 250.893 48.7129 250.168 47.3597 249.282C45.5554 248.106 44.1538 246.575 43.4289 244.481C43.2195 243.869 42.9456 243.273 42.6556 242.677C42.1562 241.613 42.1724 240.47 42.1562 239.326C42.1562 239.149 42.1724 238.971 42.2368 238.826C42.7523 237.699 43.2678 236.587 43.7994 235.476L44.0089 235.54L44.0572 235.524Z" fill="black"/>
<path d="M149.461 197.666C149.848 199.422 149.59 201.339 148.801 202.821C147.383 203.208 145.965 203.643 144.532 203.965C141.02 204.722 137.476 205.221 133.867 205.254C130.275 205.27 126.682 205.383 123.09 205.463C122.929 205.463 122.768 205.431 122.51 205.399V200.421C131.596 200.614 140.601 200.211 149.461 197.666Z" fill="black"/>
<path d="M89.8403 258.592C90.7102 255.741 91.6929 252.986 91.7896 250.022C91.8863 247.122 92.0796 244.238 91.5641 241.29C91.7091 241.29 91.854 241.226 91.9668 241.258C93.5294 241.693 95.0921 242.112 96.6386 242.579C98.6684 243.191 99.3611 244.754 99.4256 246.703C99.5061 248.83 99.055 250.892 98.5234 252.938C98.2818 253.904 98.0724 254.887 97.7663 255.837C97.5407 256.594 97.2669 257.335 96.9125 258.028C96.4936 258.834 95.7526 259.204 94.8504 259.172C93.8516 259.14 92.8528 259.043 91.8701 258.946C91.2258 258.882 90.5814 258.721 89.8242 258.592H89.8403ZM94.2544 255.676H93.1106V255.837L94.2544 255.676C94.3027 255.773 94.3349 255.934 94.3833 255.934C95.0921 255.982 95.7848 256.014 96.4936 256.047V255.902C95.7365 255.821 94.9954 255.757 94.2544 255.676ZM94.9149 251.649C94.1577 251.214 93.32 251.117 92.4501 251.246L94.931 251.633C95.6881 252.084 96.4936 252.229 97.4441 252.003C96.6064 251.89 95.7526 251.778 94.9149 251.649ZM93.0784 243.53L92.9817 243.771L98.024 245.318C96.5903 244.093 94.7215 244.109 93.0623 243.53H93.0784ZM93.0784 246.204L97.6535 247.75L97.7179 247.541C96.2359 246.88 94.7699 246.204 93.0784 246.204ZM97.6857 250.038L97.7341 249.812C96.2036 249.426 94.6732 249.007 93.0623 248.958L97.6857 250.038ZM91.3546 257.432C92.8367 257.835 94.2222 257.642 95.5915 257.69V257.432H91.3546ZM93.9 253.727L93.8516 253.888C94.8182 254.001 95.8009 254.13 96.7675 254.242L96.7997 254.033C96.2842 253.969 95.7526 253.872 95.2371 253.824C94.8021 253.775 94.351 253.759 93.9161 253.727H93.9Z" fill="black"/>
<path d="M194.826 237.021C194.971 238.81 194.633 240.501 193.747 242.08C192.136 244.964 190.026 247.38 187.239 249.184C186.949 249.361 186.626 249.49 186.304 249.619C181.971 251.23 177.557 252.551 173.062 253.679C169.357 254.597 165.668 255.644 161.995 256.691C159.369 257.432 156.663 257.803 153.988 258.254C153.714 258.302 153.441 258.27 153.167 258.302C152.087 258.415 151.314 258.012 150.847 256.997C150.589 256.418 150.219 255.902 149.832 255.242C150.783 255.483 151.572 255.693 152.361 255.854C154.053 256.208 155.728 255.999 157.371 255.531C159.659 254.887 161.93 254.194 164.234 253.598C166.167 253.099 168.149 252.761 170.082 252.31C172.692 251.697 175.317 251.085 177.911 250.392C182.116 249.281 185.998 247.428 189.558 244.931C189.752 244.786 189.945 244.641 190.138 244.496C192.281 242.918 193.699 240.872 194.246 238.246C194.343 237.827 194.472 237.408 194.569 236.973L194.794 237.005L194.826 237.021Z" fill="black"/>
<path d="M76.7433 76.4569C76.3888 76.4569 76.0183 76.5053 75.6639 76.4891C71.9587 76.473 68.2696 76.3442 64.5966 75.9414C56.3807 75.0715 48.2936 73.5089 40.4804 70.8024C38.95 70.2708 37.484 69.5781 36.0181 68.8854C34.6649 68.241 33.4888 67.3228 32.6189 66.0662C32.329 65.6474 32.0712 65.1802 31.9101 64.6969C31.6201 63.8592 31.7007 63.0054 32.3451 62.3771C33.1828 61.5555 34.0366 60.7339 35.0032 60.0895C37.4679 58.4141 40.2549 57.3509 43.0258 56.2715C47.9231 54.3545 53.046 53.1946 58.1849 52.1636C62.3734 51.3259 66.5942 50.5848 70.8149 49.9404C75.3256 49.2638 79.8524 48.7161 84.4276 48.7806C84.6531 48.7806 84.8947 48.7967 85.1364 48.9578C84.2665 49.1027 83.3965 49.3122 82.5266 49.3927C75.9217 50.0371 69.365 50.907 62.8567 52.1475C57.0734 53.2429 51.2739 54.3706 45.6677 56.2876C42.5908 57.3348 39.5461 58.4463 36.7269 60.0734C35.567 60.7339 34.4554 61.5233 33.4244 62.3932C31.8296 63.7464 32.3773 65.0835 33.4727 66.0018C34.391 66.775 35.4059 67.4677 36.4852 67.9833C39.4655 69.4331 42.6391 70.3997 45.8611 71.1891C51.58 72.6067 57.3633 73.7827 63.195 74.6365C66.9164 75.1843 70.6699 75.5387 74.4074 75.9897C75.1967 76.0864 75.97 76.167 76.7594 76.2636V76.4408L76.7433 76.4569Z" fill="black"/>
<path d="M106.644 27.6602C108.867 27.789 110.945 27.2574 112.991 26.4681C114.489 25.8881 116.036 25.3082 117.599 24.986C121.964 24.0999 126.266 24.5671 130.406 26.1459C132.726 27.0158 135.061 27.6441 137.558 27.5474C137.8 27.5474 138.042 27.5796 138.267 27.6441C138.767 27.8052 138.912 28.0951 138.751 28.5945C138.283 30.0766 136.544 31.1721 135.013 30.8821C134.272 30.7371 133.531 30.5277 132.838 30.2377C130.841 29.4 128.859 28.4979 126.862 27.6602C124.945 26.8547 122.931 26.7097 120.869 26.9675C119.918 27.0963 118.952 27.1608 118.001 27.338C116.487 27.6118 115.134 28.3046 113.797 29.0134C112.492 29.7061 111.155 30.3666 109.689 30.6566C108.593 30.866 107.498 30.866 106.402 30.6082C105.194 30.3183 104.453 29.4967 103.841 28.4979C103.583 28.0629 103.777 27.7085 104.34 27.6602C105.097 27.6118 105.855 27.6602 106.612 27.6602H106.644Z" fill="black"/>
<path d="M68.1392 300.43L68.8641 299.527L69.0574 299.189L70.459 297.916L70.6201 297.755C71.1839 297.562 71.4739 297.175 71.7316 296.628C72.1022 295.822 72.5371 295.017 73.0526 294.292C73.987 292.971 74.9858 291.682 75.9846 290.409C76.2423 290.087 76.5323 289.781 76.8384 289.507C77.5956 288.814 78.1755 288.75 79.0615 289.298C79.7059 289.701 80.3342 290.135 80.8819 290.651C82.8312 292.487 85.0382 293.953 87.1969 295.516C90.0483 297.578 92.8997 299.656 95.735 301.734C96.1539 302.04 96.5244 302.411 96.8788 302.782C97.3299 303.265 97.2654 303.716 96.6694 304.038C96.4116 304.183 96.0894 304.248 95.7834 304.296C92.7547 304.763 89.7261 305.246 86.6814 305.681C84.0877 306.036 81.478 306.31 78.8843 306.648C76.6934 306.938 74.4864 307.083 72.2794 307.002C72.1022 307.002 71.9411 307.002 71.7639 307.002C70.8939 306.954 70.749 306.857 70.5073 306.036C69.4602 307.357 69.4602 307.373 67.5915 307.389C66.9793 307.389 66.351 307.357 65.755 307.196C65.0139 307.002 64.7401 306.535 64.8851 305.794C64.9656 305.359 65.1428 304.94 65.2717 304.521C65.61 304.022 65.9483 303.506 66.2866 303.007C66.641 302.556 67.1243 302.169 67.1243 301.525L67.2048 301.444C67.7365 301.283 67.9781 300.848 68.1714 300.381V300.413L68.1392 300.43ZM72.07 302.91C72.7143 302.185 73.101 301.348 73.2943 300.397C73.4071 300.285 73.552 300.188 73.6004 300.043C74.0998 298.851 74.5831 297.659 75.0663 296.467C75.1469 296.289 75.1308 296.08 75.1791 295.87L75.1469 295.903C75.2436 295.774 75.3724 295.645 75.4208 295.5C76.0007 293.889 76.5807 292.262 77.1445 290.651C77.1767 290.538 77.1767 290.409 77.1928 290.232C75.904 291.279 72.9077 295.387 72.811 296.225C72.9077 296.177 72.9882 296.128 73.0849 296.08C73.7776 295.709 73.9065 295.774 74.1481 296.531C74.2125 296.757 74.3736 296.95 74.4703 297.111C74.1964 298.271 73.2782 299.173 73.3265 300.413C72.5371 301.042 72.4405 302.04 72.0538 302.878C71.7317 303.12 71.3772 303.329 71.5222 304.038L72.07 302.894V302.91ZM71.4578 306.1C71.8605 306.132 72.1022 306.148 72.3438 306.165C75.2919 306.374 78.2077 305.891 81.1075 305.536C84.9093 305.069 88.6951 304.489 92.4809 303.941C93.6408 303.764 94.8007 303.523 96.17 303.265C95.7511 302.894 95.5256 302.685 95.284 302.508C92.6581 300.526 90.0644 298.545 87.4224 296.595C85.006 294.823 82.4768 293.164 80.2859 291.086C79.8831 290.715 79.4321 290.377 78.981 290.071C78.7393 289.91 78.4655 289.797 78.2722 289.701C77.225 292.536 76.3068 295.307 75.1791 298.013C74.0514 300.703 72.7466 303.329 71.4578 306.116V306.1ZM73.0526 296.966C70.024 299.06 67.7203 301.541 66.0288 304.554C65.1267 306.148 65.3845 306.503 67.2532 306.471C68.5849 306.438 69.5031 305.816 70.0079 304.602C70.9101 302.443 71.8122 300.285 72.6982 298.11C72.8271 297.804 72.8915 297.481 73.0526 296.966Z" fill="black"/>
<path d="M41.7202 240.985C42.2519 242.306 42.7674 243.498 43.2023 244.706C43.9434 246.784 45.3288 248.315 47.0848 249.555C49.469 251.231 52.111 252.423 54.7852 253.534C58.5387 255.081 62.5178 255.774 66.5291 256.257C70.3954 256.724 74.2778 257.095 78.128 257.723C80.5284 258.109 82.8482 258.899 85.2163 259.495L85.168 259.769C83.847 259.608 82.5421 259.447 81.2211 259.285C78.6919 258.963 76.1627 258.577 73.6335 258.287C68.0917 257.658 62.5017 257.368 57.0083 256.225C52.0949 255.194 47.8902 252.906 44.4589 249.265C42.413 247.09 41.3336 243.772 41.7202 240.985Z" fill="black"/>
<path d="M152.908 258.834C156.646 258.367 160.27 257.61 163.863 256.611C167.842 255.5 171.853 254.485 175.816 253.341C178.829 252.471 181.793 251.472 184.789 250.538C185.079 250.441 185.353 250.361 185.707 250.409C185.321 250.683 184.934 250.973 184.531 251.231C182.759 252.374 180.858 253.293 178.877 253.985C174.495 255.532 170.113 257.111 165.586 258.158C162.896 258.786 160.174 259.237 157.435 259.463C155.888 259.591 154.358 259.414 152.908 258.818V258.834Z" fill="black"/>
<path d="M96.2025 47.9269C96.2025 49.9567 94.6237 51.5355 92.5939 51.5355C90.5802 51.5355 88.9531 49.9245 88.9531 47.9269C88.9531 45.9454 90.6124 44.2861 92.5939 44.2861C94.5915 44.2861 96.2025 45.9132 96.2186 47.9269H96.2025ZM91.3535 45.7521C90.5641 46.0099 90.1452 46.4448 90.258 46.9764C90.3063 47.1859 90.5641 47.347 90.7413 47.5242C90.8863 47.3631 91.1279 47.2342 91.1763 47.057C91.289 46.6381 91.3051 46.2032 91.3535 45.7521ZM90.6124 48.0558C90.4997 48.2652 90.3547 48.4102 90.3708 48.5069C90.403 48.6196 90.5802 48.7002 90.693 48.8129C90.7896 48.7002 90.9507 48.5713 90.9507 48.4585C90.9507 48.3458 90.7735 48.233 90.6124 48.0558Z" fill="black"/>
<path d="M66.2719 303.023C65.9336 303.523 65.5953 304.038 65.257 304.538C64.9831 305.182 64.6932 305.827 64.3549 306.616C64.4032 306.616 64.226 306.68 64.081 306.664C63.3561 306.616 62.7117 306.68 62.0351 307.035C61.1168 307.502 60.0697 307.276 59.1192 306.922C58.5715 306.713 58.491 306.197 58.9904 305.891C59.6186 305.504 60.3436 305.279 61.0524 305.005C61.2618 304.924 61.5035 304.908 61.7773 304.86C61.5518 304.409 61.2135 304.602 60.9396 304.554C60.5369 304.489 60.118 304.489 59.7153 304.393C59.5542 304.361 59.3287 304.119 59.3448 303.974C59.3448 303.781 59.5059 303.475 59.667 303.41C60.0697 303.249 60.5208 303.201 60.9557 303.12C61.3263 303.056 61.6968 303.007 62.0673 302.959C62.5345 302.895 62.8406 302.653 63.1628 302.282C63.5816 301.799 64.1615 301.445 64.6771 301.074C64.8382 300.961 65.0959 300.849 65.257 300.897C66.1591 301.155 66.8035 300.704 67.4479 300.188C67.754 299.946 68.0279 299.995 68.1406 300.43V300.398L67.1902 301.461L67.1096 301.541L65.9175 302.25L66.2719 303.007V303.023Z" fill="black"/>
<path d="M129.679 29.9638C129.293 30.0283 129.003 30.1088 128.729 30.0927C124.669 29.835 120.61 29.7061 116.55 29.9638C116.244 29.9799 115.922 29.9961 115.616 29.9477C115.438 29.9155 115.148 29.7544 115.148 29.6578C115.148 29.4644 115.261 29.1906 115.422 29.0617C115.696 28.8523 116.018 28.7234 116.341 28.6106C120.851 26.9191 125.233 27.1608 129.454 29.5772C129.502 29.6094 129.518 29.69 129.695 29.9638H129.679Z" fill="black"/>
<path d="M115.857 88.1366C118.596 85.6074 124.057 85.9779 125.282 87.5244C123.187 89.0065 117.613 89.3771 115.857 88.1366ZM122.398 86.9767C120.723 86.574 118.467 86.9123 117.726 87.6694L122.398 86.9767Z" fill="black"/>
<path d="M112.943 100.621C113.717 99.9932 114.49 99.3649 115.279 98.7367C116.262 97.9312 117.39 97.3835 118.646 97.2546C120.386 97.0613 122.142 96.9324 123.898 96.8841C125.058 96.8518 126.153 97.2707 127.104 97.9151C128.07 98.5756 128.972 99.3327 129.891 100.042L129.762 100.251C129.214 99.8966 128.618 99.5744 128.119 99.1555C126.878 98.1406 125.412 97.8023 123.866 97.7862C122.142 97.7862 120.418 97.8668 118.695 98.0117C117.486 98.1084 116.342 98.5272 115.344 99.2522C114.603 99.7838 113.813 100.283 113.056 100.783L112.976 100.621H112.943Z" fill="black"/>
<path d="M109.042 82.6758C108.559 82.6436 108.205 82.6758 107.883 82.5792C107.319 82.4503 107.174 81.9831 107.56 81.5804C107.786 81.3387 108.092 81.1454 108.382 80.9682C109.864 80.0822 111.507 79.7117 113.183 79.4217C113.779 79.325 114.375 79.6795 114.504 80.1789C114.649 80.7427 114.294 81.081 113.875 81.371C113.73 81.4676 113.585 81.5482 113.424 81.6126C111.958 82.1603 110.46 82.4986 109.042 82.6758ZM113.827 80.4366C113.424 80.0016 112.973 80.0661 112.538 80.1305C111.088 80.3399 109.719 80.791 108.479 81.5643C108.334 81.6609 108.237 81.8059 108.06 81.9831C109.88 82.1764 112.957 81.3549 113.827 80.4366Z" fill="black"/>
<path d="M132.304 82.4664C130.983 82.0958 129.453 81.6931 127.939 81.2581C127.778 81.2098 127.633 81.1131 127.488 81.0004C127.101 80.7265 126.827 80.3721 126.956 79.8727C127.069 79.4055 127.617 79.035 128.18 79.1155C130.065 79.3894 131.902 79.8405 133.513 80.9359C133.706 81.0648 133.915 81.2259 134.028 81.4353C134.205 81.7575 134.141 82.0636 133.754 82.1764C133.368 82.2891 132.949 82.3375 132.304 82.4664ZM127.472 80.0016C128.583 81.097 131.934 81.967 133.4 81.6448C133.287 81.532 133.223 81.4192 133.126 81.3387C131.773 80.4365 130.259 79.9855 128.68 79.7599C128.358 79.7116 127.987 79.8888 127.472 80.0016Z" fill="black"/>
<path d="M114.859 87.3792C115.858 86.5576 116.809 85.6716 117.888 84.9628C118.355 84.6406 119.064 84.6084 119.676 84.5439C120.643 84.4634 121.609 84.4634 122.576 84.4634C124.267 84.4634 125.282 85.6072 126.394 86.5899L126.281 86.8315C126.056 86.7348 125.782 86.6865 125.621 86.5415C124.122 85.1722 122.35 84.8983 120.417 85.14C120.353 85.14 120.272 85.14 120.208 85.14C118.838 84.9628 117.727 85.4461 116.744 86.3965C116.261 86.8637 115.649 87.2181 115.085 87.6209L114.875 87.3953L114.859 87.3792Z" fill="black"/>
<path d="M48.9848 304.827C49.6131 304.682 50.2575 304.505 50.8858 304.392C51.4335 304.296 51.9974 304.279 52.3679 304.892C52.1101 305.649 51.4657 305.745 50.8052 305.729C50.5314 305.729 50.2736 305.617 49.9998 305.584C49.6937 305.536 49.452 305.584 49.1782 305.842C48.5499 306.406 47.7766 306.277 47.0356 306.068C46.9389 306.035 46.8745 305.874 46.7617 305.745C47.1806 305.246 47.7444 305.246 48.2599 305.166C48.5499 305.117 48.9043 305.23 49.0171 304.811L48.9848 304.843V304.827Z" fill="black"/>
<path d="M56.3334 306.454C55.8179 306.39 55.3346 306.374 54.8674 306.245C54.658 306.18 54.4163 305.922 54.368 305.713C54.3358 305.584 54.5935 305.246 54.7707 305.214C55.6245 305.02 56.5106 304.859 57.3805 304.779C57.5899 304.763 57.8799 304.972 58.0571 305.133C58.5726 305.632 58.4921 306.067 57.8155 306.245C57.3322 306.374 56.8005 306.406 56.3334 306.47V306.454Z" fill="black"/>
<path d="M117.033 90.7782C119.724 91.2293 122.204 90.9715 124.814 90.1982C123.574 91.777 118.564 92.0992 117.033 90.7782Z" fill="black"/>
<path d="M122.639 78.8088C122.462 78.5349 122.269 78.2772 122.091 78.0033C121.238 76.779 120.11 76.7951 119.288 78.0355C118.982 78.5027 118.676 78.986 118.273 79.4049C118.37 78.4866 118.708 77.665 119.321 77.0045C119.933 76.3601 120.932 76.2313 121.705 76.634C122.559 77.0851 122.977 77.81 122.639 78.7927V78.8088Z" fill="black"/>
<path d="M46.7145 304.134C48.0516 303.264 49.421 303.506 50.8708 304.07C50.5648 304.151 50.2587 304.215 49.9687 304.328C49.6304 304.457 49.3243 304.65 49.0021 304.827L49.0343 304.795C48.3738 305.069 47.6972 305.02 47.0367 304.843C46.634 304.73 46.4246 304.521 46.7629 304.102L46.7307 304.134H46.7145Z" fill="black"/>
<path d="M34.7129 303.345C34.9384 302.604 35.3251 302.282 35.9372 302.266C36.4205 302.266 36.9038 302.217 37.371 302.314C37.8704 302.41 38.0315 303.055 37.6287 303.216C37.0327 303.442 36.3883 303.538 35.7439 303.587C35.4217 303.619 35.0834 303.425 34.7129 303.329V303.345Z" fill="black"/>
<path d="M137.797 97.2384C137.894 97.0773 137.942 96.8518 138.087 96.7712C138.731 96.3846 139.36 95.9335 140.052 95.6919C141.405 95.2247 142.743 96.3846 142.63 97.8345C142.63 97.8667 142.598 97.8828 142.517 97.9956C142.453 97.8183 142.388 97.6895 142.356 97.5445C142.018 96.449 141.357 96.0302 140.262 96.304C139.746 96.4329 139.263 96.7551 138.78 96.9807C138.49 97.1095 138.2 97.2545 137.926 97.3995L137.813 97.2384H137.797Z" fill="black"/>
<path d="M100.457 98.2047C100.489 97.8986 100.457 97.5603 100.554 97.2704C100.94 96.2555 102.181 95.6594 103.18 96.046C103.808 96.2877 104.404 96.6743 104.984 97.0287C105.145 97.1254 105.209 97.3831 105.193 97.7053C104.936 97.5926 104.662 97.4798 104.42 97.3348C104.017 97.1254 103.647 96.8676 103.244 96.7065C102.02 96.191 101.166 96.5938 100.763 97.8503C100.731 97.9631 100.699 98.092 100.666 98.2208L100.457 98.1886V98.2047Z" fill="black"/>
<path d="M46.7125 304.135L46.7448 304.102C46.5998 304.167 46.4065 304.183 46.2937 304.296C45.8265 304.763 45.1338 304.956 44.6022 304.747C44.1994 304.586 44.0706 304.167 44.3444 303.845C44.7149 303.41 46.197 303.329 46.6159 303.748C46.6964 303.828 46.6964 304.006 46.7286 304.135H46.7125Z" fill="black"/>
<path d="M70.6225 297.755L70.4614 297.916C69.7687 298.093 69.4787 298.705 69.0599 299.189L68.8665 299.527L68.4477 299.736L68.1738 298.899C68.4316 298.27 69.0437 298.286 69.6076 298.045C69.6398 297.852 69.6398 297.626 69.6881 297.4C69.7687 296.998 70.0103 296.772 70.4292 296.933C70.8802 297.094 70.8158 297.433 70.6225 297.771V297.755Z" fill="black"/>
<path d="M118.386 82.8846C117.742 83.4968 117.42 83.5451 116.872 83.2229C116.324 82.9007 115.97 82.3047 116.131 81.773C116.324 81.1609 116.614 80.5809 116.856 80.001L117.049 80.0654C116.936 80.3876 116.791 80.7098 116.695 81.0481C116.373 82.0791 116.646 82.5141 117.694 82.6913C117.887 82.7235 118.064 82.8041 118.386 82.8846Z" fill="black"/>
<path d="M43.1875 302.862C44.0896 302.508 44.7824 302.202 45.5556 302.298C45.7328 302.331 45.9906 302.556 46.0228 302.717C46.0389 302.894 45.8295 303.233 45.7006 303.249C44.9112 303.329 44.1058 303.507 43.2036 302.846L43.1875 302.862Z" fill="black"/>
<path d="M48.8892 303.184C49.743 302.459 50.5323 302.443 51.3056 302.556C51.8211 302.637 51.9178 303.039 51.6439 303.619L48.873 303.184H48.8892Z" fill="black"/>
<path d="M124.749 83.1423C124.846 82.4013 125.216 81.7891 124.782 81.2092C124.443 80.7581 124.073 80.307 123.799 79.7915C124.395 80.0976 124.959 80.452 125.329 81.0158C125.845 81.8213 125.651 82.659 124.749 83.1262V83.1423Z" fill="black"/>
<path d="M104.113 252.938C104.274 252.278 104.468 251.633 104.564 250.973C104.661 250.361 104.693 249.732 104.758 248.991C105.37 249.974 105.144 251.585 104.323 252.986L104.113 252.938Z" fill="black"/>
<path d="M118 81.8859C118.644 81.2737 118.773 81.2576 119.53 81.7409C118.918 82.2403 118.596 82.2725 118 81.8859Z" fill="black"/>
<path d="M123.557 82.0955H122.123C121.93 81.5961 122.3 81.4995 122.687 81.4189C123.203 81.3223 123.396 81.4672 123.557 82.0955Z" fill="black"/>
<path d="M53.7389 303.716C53.1912 304.344 52.6434 304.086 52.0957 304.038C52.4823 303.41 52.5951 303.393 53.7389 303.716Z" fill="black"/>
<path d="M114.957 81.4507C114.715 82.3045 114.087 82.6911 113.217 82.7395L114.957 81.4507Z" fill="black"/>
<path d="M105.902 252.89C106.015 252.326 106.112 251.762 106.225 251.198C106.257 251.085 106.321 250.973 106.434 250.699C106.627 251.633 106.547 252.326 106.128 252.954L105.902 252.89Z" fill="black"/>
<path d="M128.228 82.5305C127.342 82.3855 126.939 82.0955 126.424 81.3062C127.068 81.5156 127.68 81.9183 128.228 82.5305Z" fill="black"/>
<path d="M124.314 284.078C125.539 283.691 129.196 283.771 130.227 284.142C130.227 284.593 129.904 284.625 129.598 284.609C128.052 284.561 126.505 284.513 124.959 284.432C124.798 284.432 124.637 284.271 124.314 284.094V284.078Z" fill="black"/>
<path d="M123.992 266.18C124.862 266.228 125.748 266.373 126.602 266.309C127.407 266.228 128.197 265.922 129.196 265.665C128.793 266.728 127.971 266.841 127.295 266.937C126.151 267.082 124.927 267.308 123.928 266.502L123.992 266.18Z" fill="black"/>
<path d="M129.807 280.808C128.551 281.05 125.216 281.001 124.459 280.615C126.183 280.276 127.713 280.325 129.244 280.325C129.469 280.325 129.679 280.486 129.904 280.566L129.824 280.792L129.807 280.808Z" fill="black"/>
<path d="M125.025 276.023C126.814 275.733 128.827 275.894 129.343 276.361C128.924 276.571 126.749 276.667 125.638 276.506C125.396 276.474 125.186 276.329 124.961 276.249L125.041 276.023H125.025Z" fill="black"/>
<path d="M93.5287 272.028L90.7578 269.483C90.9833 269.241 91.225 269.289 91.4666 269.418C92.4815 269.966 93.2065 270.788 93.722 271.803L93.5287 272.028Z" fill="black"/>
<path d="M96.2843 268.967C95.3982 268.709 94.8988 268.081 94.4961 267.356C95.4305 267.533 95.8654 268.242 96.2843 268.967Z" fill="black"/>
<path d="M120.932 127.46H122.059C122.092 127.911 122.108 128.33 121.576 128.443C121.173 128.523 120.996 128.217 120.932 127.46Z" fill="black"/>
<path d="M75.2116 295.871C74.6156 295.5 74.4867 295.13 74.7283 294.356C74.9055 293.776 74.9861 293.728 75.711 293.776C75.5338 294.501 75.3566 295.194 75.1794 295.903L75.2116 295.871Z" fill="black"/>
</svg>
