<svg width="21" height="23" viewBox="0 0 21 23" fill="none" xmlns="http://www.w3.org/2000/svg">
<path d="M20.1454 10.1912C19.982 12.3146 19.8187 13.6758 19.492 15.1459C19.1653 16.7793 18.512 18.2493 17.5319 19.6105C17.0419 20.4272 16.3885 21.0806 15.5718 21.5706C14.5918 22.3873 13.4484 22.714 12.0872 22.5507C11.2705 22.5507 10.6172 22.5507 9.80045 22.224C9.47377 22.0607 9.1471 21.8973 8.65708 21.5706C8.49374 21.5706 8.49372 21.4073 8.33038 21.4073C8.0037 21.244 7.67702 21.2439 7.51367 21.0806C7.18699 20.9173 7.02365 20.7539 6.69697 20.5906C6.37029 20.5906 6.20694 20.2639 6.0436 20.1006C5.88026 19.9372 5.71694 19.9372 5.5536 19.9372C5.06357 19.7739 4.57354 19.6105 4.24686 19.1205C4.08352 18.9572 3.92019 18.7938 3.75685 18.7938C3.43017 18.6305 3.26683 18.3038 2.94015 18.1405L2.77678 17.9771C1.96008 17.8138 1.47006 17.4871 0.980039 16.8337C0.653357 16.3437 0.326675 15.8537 0.163334 15.2003C0.163334 14.8736 0 14.3836 0 14.057C0 13.2403 -1.33057e-05 12.4235 0.326669 11.6068C0.490009 10.6268 0.980052 9.81007 1.47007 8.99336C2.45012 7.19661 3.92017 5.88991 5.60803 4.69207C8.05814 3.05866 10.5627 1.75192 13.1762 0.554085C13.6662 0.390744 13.9929 0.227423 14.4829 0.0640818C15.1362 -0.0992591 15.7896 0.0640685 16.443 0.39075C16.7697 0.717432 17.2597 0.88078 17.7497 1.04412H17.9131C18.0764 1.04412 18.2397 1.04412 18.4031 1.04412C18.7297 1.20746 19.0564 1.37081 19.2198 1.69749C19.5465 2.35085 19.7098 3.0042 19.8731 3.8209C20.3087 6.43436 20.3087 8.55779 20.1454 10.1912ZM10.8894 7.57776C8.76596 11.0624 7.40479 14.9825 7.07811 19.1205H7.24144C8.05814 18.6305 8.87486 17.9771 9.52822 17.3238C10.9983 15.8537 12.305 14.0025 13.3395 12.0424C14.3196 10.2457 14.9729 8.23113 15.6263 6.43438C15.953 5.45434 16.2796 4.31095 16.6063 3.3309C16.7697 3.00422 16.7697 2.67754 16.7697 2.35086C14.4829 5.291 12.305 8.44889 10.5083 11.7157C11.815 8.23111 13.6117 4.96429 16.1163 2.18749C15.9529 2.35083 15.7896 2.35085 15.6263 2.5142C14.4829 3.3309 13.5028 4.1476 12.5228 4.96431C11.3794 5.94435 10.3994 6.92441 9.41932 8.06779C8.11259 9.53786 7.13255 11.0079 6.80587 13.0225C6.47919 14.3292 6.31586 15.4726 6.4792 16.8337C6.4792 16.9971 6.4792 17.1604 6.4792 17.3238C6.96922 13.5125 8.43928 10.3546 10.8894 7.57776ZM16.8241 5.29098C16.6608 5.29098 16.8241 5.29098 16.8241 5.29098C16.6608 5.29098 16.6608 5.29098 16.8241 5.29098C16.4974 5.94434 16.3341 6.43436 16.1708 6.92439C15.8441 7.90443 15.5174 8.88449 15.1907 9.86454C14.864 10.8446 14.5373 11.6613 14.0473 12.478C13.3939 13.7847 12.5772 14.9281 11.7605 15.9626C10.9438 17.106 10.1271 18.086 8.98375 18.9027C8.98375 18.9027 8.98376 18.9027 8.82042 19.0661C9.1471 18.9027 9.47378 18.5761 9.63712 18.4127C9.9638 18.2494 10.1271 17.9227 10.4538 17.596C10.7805 17.2693 10.9438 17.106 11.2705 16.7793C10.4538 18.086 9.31042 19.0661 7.94924 20.1006C8.60261 20.5906 9.09265 20.7539 9.90935 20.7539C10.7261 20.7539 11.3794 20.4272 12.0328 19.9372C12.8495 19.4472 13.3395 18.6305 13.8295 17.8138L13.9929 17.6504C13.5029 19.1205 12.5228 20.1005 11.2161 20.9717H11.3794C12.3595 20.4817 13.3395 19.9917 14.1562 19.175C15.1363 18.0316 15.953 16.5615 16.443 15.2003C17.0964 13.7303 17.423 12.0969 17.7497 10.5723C18.0764 8.77559 18.2397 6.9244 18.2397 4.96431C18.2397 4.80097 18.2397 4.47428 18.2397 4.31094C18.0764 5.12764 18.0764 5.94434 17.9131 6.92439C17.9131 6.27102 17.9131 5.45434 17.9131 4.80097C17.9131 5.291 17.7497 5.94436 17.5864 6.43438C17.5864 5.94436 17.5864 5.61767 17.7497 5.12764C17.5864 5.78101 17.2597 6.59772 16.933 7.25109C16.6608 6.43438 16.8241 5.781 16.8241 5.29098ZM11.0527 21.5706C11.3794 21.5706 11.8695 21.5706 12.1961 21.5706C13.1762 21.4073 13.8295 20.9172 14.6462 20.4272C15.953 19.2838 16.933 17.8138 17.5864 16.1259C18.0764 14.9825 18.4031 13.8392 18.5664 12.6413C18.7297 11.3346 18.8931 10.1912 19.0564 8.83003C19.0564 7.35996 19.0564 5.88989 18.8931 4.36537C18.8931 4.20203 18.8931 4.0387 18.8931 4.0387C18.8931 4.20204 18.8931 4.20203 18.8931 4.36537C18.8931 5.34542 18.8931 6.16214 18.8931 7.14219C18.7298 9.5923 18.5664 12.0968 17.7497 14.547C17.423 15.6903 16.933 16.8338 16.2797 17.8682C14.864 19.6105 13.2306 20.9173 11.0527 21.5706ZM19.6553 5.78101C19.492 5.78101 19.492 5.78101 19.6553 5.78101C19.492 5.94435 19.492 5.94435 19.6553 5.78101C19.6553 6.43438 19.6553 7.08773 19.492 7.57776C19.492 9.04782 19.3287 10.5179 19.002 11.8791C18.8387 12.8591 18.6753 14.0025 18.3486 14.9825C17.8586 16.4526 17.2052 17.9227 16.2252 19.2839C15.4085 20.4272 14.2651 21.2439 12.9039 21.734C12.5773 21.8973 12.4139 21.8973 12.0872 22.0606C12.7406 22.0606 13.2306 21.8973 13.7206 21.734C14.2107 21.5706 14.7007 21.2439 15.1907 20.7539C15.0274 21.0806 14.5373 21.4073 14.2106 21.734H14.374C14.5374 21.5706 14.7007 21.5706 14.864 21.4073C16.1707 20.4273 17.1508 19.1205 17.8042 17.596C18.4575 16.1259 18.9475 14.6559 19.1109 13.1314C19.6009 11.0079 19.7642 8.83005 19.6009 6.70662C19.6554 6.27104 19.6553 6.1077 19.6553 5.78101ZM5.28136 18.4671V18.3038C5.28136 17.8138 5.11803 17.3238 5.11803 16.6704C5.11803 15.2003 5.11801 13.7303 5.60803 12.2057C5.93471 11.0624 6.42474 9.91899 7.24144 8.8845C8.22149 7.57777 9.36489 6.43437 10.5627 5.39988C12.1961 3.92981 14.0473 2.62309 16.0074 1.42526L16.1708 1.26192C16.1708 1.26192 16.0074 1.26192 16.0074 1.42526C14.7007 2.07862 13.3939 2.89532 12.0328 3.87537C10.236 5.1821 8.38483 6.8155 7.07811 8.6667C6.09806 9.97342 5.28137 11.6068 5.11803 13.2947C4.95469 14.4381 4.95469 15.5815 5.11803 16.9426C4.95469 17.596 5.11802 18.1405 5.28136 18.4671ZM1.36117 15.6359C1.36117 15.4726 1.36117 15.6359 1.36117 15.6359C1.36117 15.3092 1.19784 14.9825 1.19784 14.8192C1.0345 13.3491 1.19785 11.8791 1.85121 10.3545C2.50457 9.21115 3.15791 8.23113 4.13796 7.25109C5.118 6.27104 6.09805 5.45431 7.24144 4.63761C8.54817 3.65756 10.0182 2.84086 11.5428 2.02416C11.7061 1.86082 12.0328 1.86083 12.1961 1.69749C12.0328 1.69749 12.0328 1.69749 11.8694 1.69749C10.5627 2.35085 9.41932 3.0042 8.05814 3.65757C6.26139 4.80095 4.41021 5.94436 3.10348 7.79556C2.12344 8.93894 1.30672 10.2457 0.980039 11.7702C0.816698 12.7502 0.653357 13.7303 0.980039 14.547C0.871145 14.9825 1.03449 15.3092 1.36117 15.6359ZM3.32125 14.9825C3.32125 14.8192 3.32128 14.6559 3.48462 14.4925C3.48462 13.5125 3.64794 12.6958 3.97462 11.8791C4.62799 10.0823 5.60804 8.55781 7.07811 7.41442C8.05815 6.43438 9.20152 5.61768 10.3994 4.80097C11.7061 3.65759 13.1762 2.67754 14.7007 1.69749C14.864 1.69749 14.864 1.53416 15.0273 1.53416C15.0273 1.53416 15.0274 1.53416 14.864 1.53416C14.5373 1.6975 14.2107 1.86082 13.884 2.02416C11.5972 3.49423 9.25597 4.96429 7.13254 6.81549C5.66247 8.12221 4.5191 9.59228 3.81129 11.4435C3.48461 12.2602 3.32125 13.2402 3.32125 14.2203C3.32125 14.4925 3.32125 14.6558 3.32125 14.9825ZM13.7206 1.31636C13.394 1.4797 13.2306 1.47968 12.9039 1.64302C11.1072 2.45973 9.41932 3.43979 7.78591 4.58317C5.98916 5.72656 4.46464 7.19663 3.15792 9.04783C2.01453 10.6812 1.52453 12.5324 1.85121 14.4925C1.85121 14.6559 1.8512 14.8192 2.01454 14.9825C2.01454 14.8192 2.01454 14.6559 2.01454 14.4925C2.01454 13.8392 2.01454 13.0224 2.17788 12.3691C2.34122 11.5524 2.6679 10.7357 2.99458 10.0823C3.97463 8.44889 5.28136 6.97885 6.80587 5.78101C8.76596 4.31095 10.9438 3.0042 13.0673 1.64302C13.394 1.64302 13.5573 1.4797 13.7206 1.31636ZM8.60261 5.12764C8.60261 4.9643 8.60261 4.9643 8.60261 5.12764C8.27593 5.29098 7.94926 5.45433 7.62258 5.78101C5.98917 6.9244 4.51911 8.39445 3.48462 10.0823C2.66791 11.389 2.34121 13.0224 2.34121 14.547V14.7103C2.34121 14.3836 2.50455 14.0569 2.50455 13.7303C2.50455 12.9136 2.83124 12.0968 2.99458 11.4435C3.48461 10.1368 4.30132 8.99338 5.11803 7.95889C5.93473 6.9244 6.91476 6.32548 7.89481 5.50878C8.27594 5.29099 8.43927 5.12764 8.60261 5.12764ZM5.4447 17.4326C5.4447 17.2693 5.4447 17.2693 5.4447 17.106C5.4447 15.7992 5.44468 14.6559 5.77137 13.458C6.09805 11.8246 6.75143 10.5179 7.73148 9.15673C8.54818 8.01334 9.36488 7.19663 10.3449 6.21658C10.5083 6.05324 10.835 5.72655 10.9983 5.56321C10.835 5.56321 10.8349 5.72655 10.6716 5.72655C9.85489 6.37991 9.20155 7.19663 8.38485 7.84999C7.24146 8.99338 6.42476 10.3001 5.93473 11.8246C5.44471 13.458 5.28136 14.9281 5.28136 16.6159C5.28136 16.9426 5.4447 17.106 5.4447 17.4326ZM6.4792 8.23113C6.4792 8.23113 6.4792 8.39447 6.4792 8.23113C5.33582 9.21117 4.84578 10.3545 4.35576 11.7157C3.70239 13.3491 3.53904 15.037 3.86572 16.8337C3.86572 17.1604 4.02909 17.3238 4.02909 17.6504C4.02909 17.6504 4.02909 17.6505 4.02909 17.4871C4.02909 16.8337 3.86572 16.1804 3.86572 15.527C3.86572 14.2203 4.02908 13.0769 4.35576 11.7157C4.68244 10.7357 5.17247 9.75564 5.82583 8.7756C6.31585 8.55781 6.4792 8.39447 6.4792 8.23113ZM5.77137 17.106C5.77137 15.3092 5.93471 13.6214 6.58807 11.9879C7.24143 10.3545 8.05816 8.8845 9.20155 7.52332C6.64254 10.3546 5.60802 13.5125 5.77137 17.106Z" fill="#020203"/>
<path d="M10.8888 7.57752C8.43872 10.191 7.07754 13.5122 6.58751 16.9424C6.58751 16.7791 6.58751 16.6157 6.58751 16.4524C6.42417 15.1456 6.58753 13.8389 6.91422 12.6411C7.40424 10.8443 8.38428 9.15649 9.52766 7.68642C10.5077 6.54303 11.4878 5.56298 12.6311 4.58293C13.6112 3.76623 14.7546 2.94953 15.7346 2.13282C15.898 1.96948 16.0613 1.96949 16.2246 1.80615C13.7745 4.58295 11.9233 7.90421 10.6166 11.3344C12.4134 8.01311 14.5912 4.90962 16.878 1.96949C16.878 2.29617 16.7147 2.62284 16.7147 2.94953C16.388 3.92957 16.0613 5.07296 15.7346 6.05301C15.0813 8.0131 14.4279 9.86429 13.4479 11.661C12.4678 13.6211 11.1611 15.4723 9.63656 16.9424C8.9832 17.5958 8.16649 18.2491 7.34978 18.7391C7.34978 18.7391 7.34979 18.7391 7.18645 18.7391C7.45868 14.9823 8.60206 11.171 10.8888 7.57752Z" fill="white"/>
<path d="M16.8246 5.29059C16.8246 5.78062 16.8246 6.43398 16.6612 6.924C16.9879 6.27064 17.3146 5.6173 17.4779 4.80059C17.4779 5.29061 17.4779 5.61728 17.3146 6.1073C17.4779 5.61728 17.6413 4.96391 17.6413 4.47389C17.6413 5.12725 17.6413 5.94397 17.6413 6.59733C17.8046 5.78063 17.8046 4.96393 17.968 3.98389C17.968 4.14723 17.968 4.47388 17.968 4.63722C17.968 6.43397 17.8046 8.44854 17.4779 10.2453C17.1513 11.8787 16.8246 13.3488 16.1712 14.8733C15.5179 16.3433 14.8645 17.6501 13.8844 18.8479C13.0677 19.6646 12.2511 20.318 11.1077 20.6446H10.8899C12.1966 19.9913 13.1766 18.8479 13.6666 17.3234L13.5033 17.4867C13.0133 18.3034 12.3599 18.9568 11.7066 19.6101C11.0532 20.1002 10.3998 20.4268 9.58312 20.4268C8.92976 20.4268 8.27641 20.2635 7.62305 19.7735C8.92977 18.7935 10.0731 17.9767 10.9443 16.4522C10.6176 16.7789 10.4543 16.9422 10.1276 17.2689C9.80091 17.5956 9.63757 17.7589 9.31089 18.0856C8.98421 18.249 8.65753 18.5757 8.49419 18.739C8.49419 18.739 8.49421 18.739 8.65755 18.5757C9.6376 17.759 10.6176 16.7789 11.4343 15.6355C12.251 14.4921 13.0677 13.3488 13.7211 12.1509C14.2111 11.3342 14.5378 10.3542 14.8645 9.53745C15.1912 8.55741 15.5178 7.57738 15.8445 6.59733C16.3345 6.43399 16.4979 5.94396 16.8246 5.29059C16.6613 5.29059 16.6613 5.29059 16.8246 5.29059C16.8246 5.29059 16.6613 5.29059 16.8246 5.29059Z" fill="white"/>
<path d="M11.0527 21.5708C13.1762 20.9174 14.864 19.6107 16.0074 17.9228C16.6608 16.9428 17.1508 15.7994 17.4775 14.6016C18.1308 12.1514 18.4575 9.64686 18.6209 7.19675C18.6209 6.2167 18.6209 5.40001 18.6209 4.41996C18.6209 4.41996 18.6209 4.2566 18.6209 4.09326C18.6209 4.2566 18.6209 4.41996 18.6209 4.41996C18.7842 5.89003 18.7842 7.36011 18.7842 8.88462C18.7842 10.1913 18.6209 11.4981 18.2942 12.6959C18.1308 13.8393 17.8042 14.9827 17.3141 16.1805C16.6608 17.8139 15.8441 19.284 14.374 20.4818C13.7207 21.1352 12.904 21.4619 11.9239 21.6252C11.8695 21.5707 11.3794 21.5708 11.0527 21.5708Z" fill="white"/>
<path d="M19.6563 5.78076C19.6563 5.9441 19.6563 6.27079 19.6563 6.43413C19.8196 8.55756 19.6563 10.7354 19.1662 12.8589C18.8396 14.3289 18.5129 15.799 17.8595 17.3235C17.2061 18.7936 16.2261 20.1003 14.9194 21.1348C14.7561 21.2982 14.5927 21.2981 14.4294 21.4615C14.4294 21.4615 14.4294 21.4615 14.266 21.4615C14.5927 21.1348 14.9194 20.9715 15.2461 20.4814C14.756 20.8081 14.266 21.1348 13.776 21.4615C13.286 21.6248 12.6326 21.7881 12.1426 21.7881C12.4693 21.6248 12.6326 21.6248 12.9593 21.4615C14.266 20.9715 15.4094 20.1548 16.2806 19.0114C17.2606 17.7046 17.914 16.3979 18.404 14.71C18.7307 13.73 18.894 12.75 19.0573 11.6066C19.384 10.1365 19.5474 8.82979 19.5474 7.30527C19.4929 7.08748 19.4929 6.59747 19.6563 5.78076C19.4929 5.9441 19.4929 5.9441 19.6563 5.78076C19.4929 5.78076 19.4929 5.78076 19.6563 5.78076Z" fill="white"/>
<path d="M5.28124 18.4672C5.1179 17.9772 4.95454 17.4871 4.95454 16.9971C4.7912 15.8537 4.7912 14.7103 4.95454 13.3492C5.11788 11.7158 5.9346 10.0279 6.91465 8.72118C8.38472 6.92443 10.0181 5.23658 11.8693 3.92985C13.176 2.94981 14.3194 2.1331 15.8439 1.47974C15.8439 1.47974 16.0073 1.47975 16.0073 1.31641L15.8439 1.47974C14.0472 2.62313 12.0326 3.92985 10.3992 5.45436C9.25585 6.43441 8.11247 7.74115 7.07798 8.93898C6.26128 9.91903 5.77125 11.0624 5.44457 12.2602C5.11789 13.7303 4.95454 15.2004 4.95454 16.7249C4.95454 17.106 5.1179 17.596 5.28124 18.4672Z" fill="white"/>
<path d="M1.36059 15.6357C1.03391 15.309 0.870553 14.9823 0.870553 14.6556C0.707212 13.6756 0.707212 12.6955 0.870553 11.8788C1.19723 10.4088 2.01395 9.10202 2.994 7.90419C4.30072 6.27078 6.09746 4.96406 7.94866 3.76623C9.09204 3.11287 10.3988 2.45952 11.7599 1.80615C11.7599 1.80615 11.9233 1.80615 12.0866 1.80615C11.9233 1.96949 11.5966 2.13282 11.4333 2.13282C9.96321 2.94953 8.65647 3.76622 7.13195 4.74627C5.98857 5.56297 5.00855 6.37967 4.0285 7.35972C3.2118 8.33976 2.39509 9.31981 1.74172 10.4632C1.08836 11.9333 0.761672 13.4033 1.08835 14.9279C1.19725 14.9823 1.36059 15.309 1.36059 15.6357C1.36059 15.6357 1.36059 15.4723 1.36059 15.6357Z" fill="white"/>
<path d="M3.32227 14.9828C3.32227 14.6561 3.32227 14.4928 3.32227 14.1661C3.32227 13.1861 3.48562 12.3694 3.8123 11.3893C4.46567 9.59258 5.60904 8.06807 7.13355 6.76134C9.25698 4.96459 11.5982 3.27674 13.885 1.97002C14.2117 1.80668 14.5383 1.64332 14.865 1.47998C14.865 1.47998 14.865 1.47998 15.0284 1.47998C14.865 1.47998 14.865 1.64331 14.7017 1.64331C13.2316 2.62336 11.7615 3.60341 10.4004 4.7468C9.25698 5.5635 8.27695 6.54354 7.07912 7.36025C5.77239 8.50363 4.629 9.97371 3.97564 11.8249C3.64895 12.6416 3.48563 13.6216 3.48563 14.4383C3.32229 14.6561 3.32227 14.8195 3.32227 14.9828Z" fill="white"/>
<path d="M13.7215 1.31641C13.5581 1.47975 13.3948 1.47973 13.2314 1.64307C11.108 2.78646 8.93012 4.25655 6.97003 5.78106C5.49996 6.92445 4.19324 8.23116 3.15874 10.0824C2.66872 10.7357 2.50538 11.5524 2.34204 12.3691C2.1787 13.0225 2.1787 13.8392 2.1787 14.4926C2.1787 14.6559 2.1787 14.8192 2.1787 14.9826C2.1787 14.8192 2.17871 14.6559 2.01537 14.4926C1.68869 12.5325 2.17869 10.6813 3.32208 9.04788C4.46546 7.25113 6.09887 5.9444 7.95007 4.58322C9.58348 3.43984 11.4347 2.45978 13.0681 1.64307C13.2314 1.64307 13.3948 1.47975 13.7215 1.31641Z" fill="white"/>
<path d="M8.60224 5.12739C8.4389 5.29073 8.27558 5.45408 8.11224 5.61742C7.13219 6.43413 6.15213 7.08749 5.33542 8.06754C4.35538 9.04758 3.70203 10.1909 3.21201 11.5521C2.88533 12.3688 2.72198 13.0222 2.72198 13.8389C2.72198 14.1656 2.72198 14.4923 2.55864 14.8189V14.6556C2.3953 13.0222 2.88531 11.5521 3.70201 10.1909C4.68206 8.3942 6.15215 7.08749 7.84 5.88966C7.9489 5.45408 8.27556 5.29073 8.60224 5.12739C8.60224 4.96405 8.60224 4.96405 8.60224 5.12739Z" fill="white"/>
<path d="M5.44531 17.4319C5.44531 17.1053 5.44531 16.9419 5.44531 16.6152C5.44531 14.9818 5.60866 13.294 6.09868 11.8239C6.58871 10.3538 7.40541 9.04711 8.5488 7.84928C9.20216 7.03257 10.0189 6.3792 10.8356 5.72583C10.8356 5.72583 10.9989 5.5625 11.1622 5.5625C10.9989 5.72584 10.6722 6.05253 10.5089 6.21587C9.52883 7.03257 8.71213 8.01263 7.89543 9.15602C6.91538 10.4627 6.26203 11.9328 5.93535 13.4573C5.77201 14.6007 5.60865 15.9074 5.60865 17.1053C5.44531 17.1053 5.44531 17.2686 5.44531 17.4319Z" fill="white"/>
<path d="M6.47942 8.23096C6.31608 8.3943 6.31606 8.55762 6.15272 8.72096C5.49936 9.53766 5.00933 10.5177 4.68265 11.6611C4.35596 12.8045 4.0293 14.1112 4.19264 15.4724C4.19264 16.1258 4.19264 16.7791 4.35598 17.4325C4.35598 17.4325 4.35598 17.4325 4.35598 17.5958C4.35598 17.2692 4.19264 17.1058 4.19264 16.7791C3.86596 15.1457 4.02928 13.2945 4.68265 11.6611C4.79154 10.5177 5.44493 9.37434 6.47942 8.23096C6.47942 8.3943 6.47942 8.23096 6.47942 8.23096Z" fill="white"/>
<path d="M5.77121 17.1054C5.60787 13.4574 6.58793 10.1906 9.25583 7.57715C8.11245 8.88388 7.29575 10.354 6.64238 12.0418C5.93457 13.6752 5.93455 15.472 5.77121 17.1054Z" fill="white"/>
</svg>
