<svg width="18" height="23" viewBox="0 0 18 23" fill="none" xmlns="http://www.w3.org/2000/svg">
<path d="M9.50031 17.6059C8.09937 18.7102 6.65102 19.9829 5.08175 21.0399C4.23726 21.6196 3.42832 22.0731 2.58383 22.6529C2.42204 22.7436 2.26027 22.8343 2.09848 22.925C1.36062 23.126 0.800468 22.6958 0.599451 21.958C0.579837 21.5437 0.560247 21.1294 0.540632 20.7151C0.568807 18.6792 1.0231 16.5817 1.5918 14.5618C2.19604 12.4156 2.93836 10.2629 3.92134 8.22337C4.56481 6.90576 5.34637 5.58161 6.24233 4.33509C6.86988 3.558 7.49741 2.78093 8.2275 2.12355C8.78396 1.59896 9.43112 1.23617 10.169 1.03515C11.1949 0.778973 12.1141 0.901518 12.9688 1.41466C13.4383 1.68308 13.9984 2.11327 14.4679 2.38169C14.811 2.61457 15.1542 2.84743 15.6592 2.98961C16.2549 3.29357 16.7795 3.85004 17.1423 4.49719C17.6865 5.46792 17.8164 6.4583 17.4847 7.63658C17.1648 8.77279 16.628 9.71166 16.0793 10.6926C14.3294 13.1975 11.8708 15.639 9.50031 17.6059ZM5.44901 15.0573C4.73446 16.6274 3.8818 18.2041 3.29349 19.8097C3.45528 19.719 3.49082 19.5928 3.52637 19.4665C4.22499 18.4369 4.88809 17.5336 5.59856 16.4619C6.26165 15.5586 6.92471 14.6553 7.5641 13.8361C8.22718 12.9328 8.92581 11.9032 9.72699 10.9934C10.1572 10.4332 10.7492 9.78236 11.0532 9.18668C11.7518 8.1571 12.4504 7.12754 13.0346 6.02034C13.5004 5.33396 13.8044 4.73829 14.0176 3.98082C14.0532 3.85457 14.0887 3.72832 14.1243 3.60207C13.998 3.56653 13.998 3.56655 13.9625 3.6928C13.1891 4.02006 12.5064 4.5091 11.9144 5.15994C10.9632 6.11843 10.1384 7.11245 9.42791 8.1841C8.46087 9.68312 7.57268 11.386 6.60563 12.885C6.57009 13.0112 6.37273 13.2282 6.33718 13.3545C7.41902 10.4798 8.83224 7.88014 10.7622 5.38056C10.5649 5.59751 10.2058 5.90514 10.0085 6.12209C9.14805 7.24237 8.40203 8.44026 7.66786 9.59608C6.8626 11.0044 6.20725 12.3641 5.52824 13.808C4.92031 14.9993 4.42679 16.2683 3.78332 17.5859C3.74778 17.7121 3.74777 17.7122 3.71223 17.8384C4.39247 16.7128 4.76754 15.8646 5.44901 15.0573ZM4.38959 12.8515C4.38959 12.8515 4.51584 12.8871 4.38959 12.8515C4.85534 12.1652 5.19485 11.4432 5.6606 10.7568C6.12636 10.0704 6.46587 9.34851 6.93162 8.66213C6.93162 8.66213 6.93161 8.66212 7.05786 8.69767C6.01972 10.4492 5.22223 12.3139 4.77977 14.3693L4.81532 14.2431C5.86939 11.951 6.89975 9.74317 8.04452 7.61294C8.88532 6.07838 9.99047 4.57285 11.5177 3.50405C11.8768 3.1964 12.3621 2.92426 12.8475 2.65216C13.0093 2.56146 13.1711 2.47077 13.2973 2.50631C13.1711 2.47077 13.1711 2.47077 13.1711 2.47077C12.6306 2.45484 12.09 2.43891 11.6047 2.71101C10.993 2.94757 10.3459 3.31037 9.78945 3.83496C9.59212 4.05191 9.43034 4.14262 9.23301 4.35956C9.93164 3.32999 10.8472 2.49776 12.0467 2.1088C11.9205 2.07326 11.9205 2.07326 11.7942 2.03771C11.1275 1.98624 10.5158 2.22281 9.99494 2.62116C9.15045 3.20092 8.52291 3.97799 8.00977 4.8327C7.07827 6.20547 6.26115 7.65587 5.70838 9.13527C5.29778 10.1097 5.01345 11.1196 4.62655 12.0099C4.69355 12.2559 4.49622 12.4728 4.38959 12.8515ZM10.8619 1.63895C10.7357 1.6034 10.8619 1.63895 10.8619 1.63895C10.7357 1.6034 10.7357 1.6034 10.8619 1.63895C10.4121 1.78481 10.1241 1.83997 9.80047 2.02137C8.7942 2.69182 7.87861 3.52409 7.16814 4.59574C6.70239 5.28213 6.20109 6.09475 5.81419 6.985C5.17072 8.30261 4.47986 9.78857 3.96263 11.1417C3.89154 11.3942 3.82047 11.6467 3.74938 11.8992C3.94303 10.7274 4.38915 9.62676 4.84714 8.48402C5.29328 7.38336 5.73942 6.28269 6.28811 5.30173C5.32106 6.80074 4.55913 8.53916 3.97081 10.1448C3.34696 11.8767 2.4465 15.0749 2.37541 15.3274C2.71491 14.6055 2.96373 13.7218 3.30324 12.9999C3.30324 12.9999 3.30323 12.9999 3.42948 13.0354C3.07404 14.2978 2.833 15.6379 2.47756 16.9004L2.51311 16.7741C2.69083 16.1429 3.03032 15.421 3.20804 14.7897C3.52793 13.6535 4.00964 12.4266 4.34138 11.2484C5.14295 8.88524 6.33511 6.58666 7.73236 4.52751C8.43099 3.49794 9.22033 2.63013 10.3647 1.95314C10.5383 1.82035 10.7001 1.72965 10.8619 1.63895ZM15.4562 4.84001C15.2588 5.05695 15.026 5.40013 14.9549 5.65262C14.5798 6.50079 14.0785 7.31341 13.4747 8.00633C12.6143 9.12661 11.7894 10.1207 10.9171 11.283C10.1278 12.1508 9.30292 13.1448 8.50175 14.0547C7.47954 15.2657 6.44548 16.5187 5.54952 17.7653C4.76019 18.633 4.06157 19.6626 3.38664 20.608C3.35109 20.7343 3.1893 20.825 3.11821 21.0775C3.47733 20.7698 3.872 20.3359 4.10487 19.9928C5.09154 18.908 6.25183 17.6905 7.23849 16.6058C8.22516 15.521 9.25922 14.2679 10.2814 13.057C11.3392 11.7197 12.4088 10.3405 13.4665 9.00325C14.094 8.22616 14.5954 7.41351 15.0178 6.39701C15.1718 5.84995 15.314 5.34499 15.4562 4.84001ZM16.4857 5.53864C16.308 6.16987 16.1303 6.80107 15.9881 7.30605C15.7038 8.31601 15.0762 9.0931 14.4013 10.0385C13.3791 11.2495 12.3806 12.3763 11.3939 13.461C10.2455 14.6365 9.12074 15.7277 8.09854 16.9387C7.14742 17.8972 6.03452 18.9464 5.07155 19.947C4.90976 20.0377 4.83865 20.2902 4.67686 20.3809C5.43065 19.6393 6.27516 19.0596 7.04079 18.2759C8.31548 17.136 9.47576 15.9185 10.8281 14.6643C11.5819 13.9227 12.3357 13.1812 12.975 12.362C13.7644 11.4942 14.5893 10.5002 15.2642 9.55478C15.8917 8.7777 16.2668 7.92949 16.563 6.87745C16.6157 6.52895 16.6316 5.98846 16.4857 5.53864ZM16.2688 5.34129C16.0911 5.97252 15.9845 6.35124 15.716 6.82068C15.037 8.26453 14.1292 9.55314 13.1426 10.6379C12.2821 11.7581 11.331 12.7167 10.3325 13.8435C9.34585 14.9282 8.34734 16.055 7.23444 17.1042C7.0371 17.3211 6.8753 17.4118 6.67797 17.6288L6.83976 17.5381C8.50912 15.9643 10.2259 14.2222 11.8466 12.4985C12.8333 11.4137 13.6581 10.4197 14.5304 9.25732C15.3908 8.13705 15.9632 7.07194 16.1135 5.57007C16.1977 5.59377 16.2333 5.46754 16.2688 5.34129ZM10.2201 11.1776C10.2201 11.1776 10.1727 11.3459 10.2201 11.1776C10.3464 11.2131 10.3819 11.0869 10.4175 10.9607C10.6503 10.6175 11.0095 10.3098 11.2779 9.84038C12.1027 8.84635 12.9632 7.72605 13.7092 6.52815C14.1749 5.84177 14.4789 5.24613 14.7277 4.36241C14.7632 4.23617 14.7988 4.10989 14.8699 3.8574C13.5895 6.63071 11.8147 8.9015 10.2201 11.1776ZM9.28414 14.5021C9.28414 14.5021 9.2486 14.6283 9.28414 14.5021C9.44593 14.4114 9.60773 14.3207 9.67882 14.0682C10.2708 13.4174 10.8628 12.7665 11.4548 12.1157C12.2441 11.2479 13.069 10.2538 13.7795 9.18218C14.3715 8.53134 14.8728 7.71872 15.1334 6.79292L15.169 6.66666C13.5532 9.66345 11.3286 12.0801 9.28414 14.5021Z" fill="#020203"/>
</svg>
