<svg width="33" height="31" viewBox="0 0 33 31" fill="none" xmlns="http://www.w3.org/2000/svg">
<path d="M26.5178 15.5495C27.9503 17.8007 29.5875 20.5294 30.8836 22.9851C31.4976 24.4177 32.1115 25.8502 32.7254 27.1463C32.9301 27.351 32.9301 27.7603 32.9301 27.9649C33.1348 29.1928 32.3161 30.0114 31.2929 30.0114C30.679 30.0114 30.065 30.0114 29.2464 29.8068C25.972 29.3975 23.0387 28.1696 19.969 26.9417C16.6946 25.5091 13.5567 24.0766 10.4869 21.9619C8.44043 20.734 6.59859 19.3014 4.89318 17.596C3.86993 16.5728 2.84668 15.5496 2.02808 14.117C1.41414 13.0938 0.800198 12.0705 0.800198 10.8426C0.595549 9.20545 1.00485 7.77289 1.82344 6.47678C2.43739 5.65818 3.05135 5.04424 3.66529 4.43029C4.07459 3.81634 4.48388 3.40703 4.89318 2.79308C5.50712 1.97449 6.53039 1.15589 7.55363 0.746593C9.19082 0.132646 10.828 0.132646 12.5334 0.746593C14.1706 1.36054 15.6032 2.38379 16.8993 3.61169C20.3101 7.29537 23.7891 11.3883 26.5178 15.5495ZM21.7426 21.2797C23.9938 22.7123 26.3131 24.1448 28.7689 25.6455C28.5642 25.4409 28.3596 25.2363 28.3596 25.0316C26.9271 23.8037 25.6991 22.5758 24.1984 21.1433C22.9705 19.9154 21.7426 18.8922 20.5147 17.6643C19.0822 16.4364 17.8543 15.2085 16.6264 13.7759C15.8078 12.9573 14.9892 12.1387 13.9659 11.3201C12.5334 10.0922 10.8962 8.86436 9.39548 7.63647C8.37223 6.81787 7.55364 6.20392 6.32575 5.79462C6.1211 5.79462 5.91643 5.58998 5.71178 5.58998C5.71178 5.79463 5.71178 5.79462 5.71178 5.79462C6.12108 7.02251 6.73503 8.25039 7.55363 9.27363C8.78152 10.9108 10.214 12.3434 11.9194 13.6395C14.1706 15.4813 16.4899 17.1185 18.7411 19.0286C18.9457 19.2332 19.1504 19.4379 19.355 19.6425C14.9892 17.3914 11.3055 14.6627 7.82647 11.3884C8.23577 11.7977 8.44042 12.207 8.84972 12.6162C10.2823 14.0488 11.9195 15.4813 13.8295 16.9821C15.876 18.4147 17.9907 19.8472 20.0372 21.1433C21.879 22.1665 23.7209 23.3944 25.4263 24.4177L25.631 24.6223C23.9938 23.3944 22.7659 22.5758 21.7426 21.2797ZM18.0589 22.5758C18.0589 22.3712 18.0589 22.3712 18.0589 22.5758C17.0357 21.7572 16.0125 21.1433 15.1939 20.3247C14.1706 19.5061 13.1474 18.6875 12.3288 17.8689C12.3288 17.8689 12.3288 17.8689 12.3288 17.6643C14.7846 19.7108 17.7178 21.1433 20.7876 22.2347L20.5829 22.0301C17.3085 19.9836 13.9659 17.8689 10.8962 15.6178C8.64507 13.9806 6.53036 11.9341 5.09782 9.41007C4.68852 8.79613 4.27922 7.97754 4.07457 7.15894C4.07457 6.95429 3.86993 6.74964 3.86993 6.34034C3.86993 6.54499 3.86993 6.54498 3.86993 6.54498C3.66528 7.36358 3.66528 8.1822 3.86993 9.00079C4.07458 10.024 4.68855 11.0473 5.3025 12.0705C5.50715 12.4798 5.71177 12.6845 5.91642 13.0938C4.48388 11.6612 3.46063 10.2287 3.05133 8.11399C3.05133 8.31864 3.05133 8.31863 3.05133 8.31863C2.84668 9.34187 3.25599 10.3651 3.66529 11.1837C4.48389 12.6163 5.50714 13.6395 6.53039 14.6627C8.37223 16.2999 10.4187 17.9371 12.7381 19.0286C14.1706 19.8472 15.6032 20.4611 17.1039 21.2797C17.1721 21.9619 17.6496 22.1665 18.0589 22.5758ZM1.95988 10.3651C1.75524 10.3651 1.75524 10.3651 1.95988 10.3651V10.5698C2.16453 10.9791 2.16452 11.593 2.36917 12.0023C3.18776 13.8441 4.41568 15.2767 5.84822 16.5728C6.87147 17.596 8.09935 18.4147 9.1226 19.0286C11.1691 20.2565 13.0109 21.4844 15.3303 22.7123C15.7396 22.9169 16.1489 23.1216 16.3535 23.3262C14.5117 22.9169 13.0791 21.8937 11.3737 21.0751C9.73654 20.2565 8.30399 19.2332 6.59859 18.21C8.84972 20.0518 11.3738 21.4844 13.8295 22.7805C16.49 24.213 21.0605 26.0549 21.6744 26.0549C20.4465 25.4409 19.4233 24.827 18.1954 24.213C18.1954 24.213 18.1954 24.213 18.1954 24.0084C20.0372 24.6223 22.0837 25.4409 23.9937 26.0549C23.9937 26.0549 23.9938 25.8502 23.7891 25.8502C22.7659 25.4409 21.7426 24.827 20.7194 24.4177C19.0822 23.5991 17.2404 22.7805 15.5349 21.9619C12.0559 20.1201 8.71331 18.0735 5.84822 15.5495C4.41568 14.3216 3.18776 12.8891 2.36917 10.979C2.16452 10.979 1.95988 10.7744 1.95988 10.3651ZM7.69007 3.74813C7.69007 3.74813 7.69007 3.95278 7.69007 3.74813C8.09937 4.15743 8.50866 4.36207 8.91796 4.77137C10.1459 5.58997 11.1691 6.40858 12.1923 7.43183C13.6249 8.86437 15.2621 10.5016 16.7628 12.207C17.9907 13.6395 19.2186 15.072 20.6512 16.5728C22.2884 18.4146 23.9255 20.0518 25.8356 21.9619C27.0635 23.1898 28.496 24.6223 29.7239 25.8502C29.9286 26.0549 30.1332 26.2595 30.3379 26.4642C29.9286 25.8502 29.3146 25.2362 28.9053 24.6223C27.4728 22.7805 25.8356 20.9386 24.1302 19.2332C22.493 17.3914 20.8558 15.7542 19.1504 13.8441C17.3086 11.7976 15.4667 9.9558 13.5567 8.04575C12.5334 7.0225 11.3055 5.99925 9.87296 5.18065C9.12258 4.56671 8.30402 4.15743 7.69007 3.74813ZM8.91796 2.3156C9.12261 2.3156 9.12261 2.3156 8.91796 2.3156C9.9412 2.7249 10.7598 2.92955 11.5784 3.33885C13.0109 3.95279 14.2388 5.18065 15.2621 6.2039C16.8993 7.84109 18.5364 9.68295 20.0372 11.593C21.6744 13.4348 23.1069 15.4813 24.8124 17.3914C26.2449 19.2332 27.4728 20.8704 28.9735 22.7805C29.1782 22.9851 29.3828 23.1898 29.5875 23.3944C28.7689 21.9619 27.7456 20.734 26.927 19.5061C25.2898 17.4596 23.8573 15.1403 22.1519 13.0938C21.1287 11.8659 20.1054 10.638 19.0822 9.41007C17.8543 7.97753 16.6264 6.545 15.1939 5.2489C13.966 4.22565 12.7381 3.20239 11.3055 2.58844C10.6234 2.31558 9.80477 2.3156 8.91796 2.3156ZM8.71332 2.72488C8.71332 2.92953 8.71332 2.92953 8.71332 2.72488C9.53191 3.13418 10.1459 3.54347 10.7598 3.95277C12.8063 5.18066 14.6481 6.81785 16.3535 8.72791C17.7861 10.3651 19.2186 12.0023 20.7194 13.7077C22.1519 15.5495 23.5845 17.1867 25.0852 19.0968C25.2899 19.3014 25.4945 19.7108 25.9038 19.9154L25.6992 19.7108C23.6527 16.8457 21.3333 13.9124 18.8775 11.0473C17.445 9.41009 16.0124 7.7729 14.307 6.27214C12.8745 4.8396 11.0327 3.6117 8.91796 3.20241C8.91796 2.92954 8.91796 2.72488 8.71332 2.72488ZM16.5582 13.2302C16.7628 13.2302 16.7628 13.2302 16.5582 13.2302C16.5582 13.0256 16.3535 13.0255 16.3535 12.8209C15.9442 12.2069 15.3303 11.7977 14.921 11.1837C13.4884 9.75118 12.0559 8.11397 10.3505 6.81786C9.32724 5.99927 8.50864 5.38531 7.28075 4.97601C7.0761 4.97601 6.87148 4.77137 6.66683 4.77137C10.2141 7.29538 13.2838 10.3651 16.5582 13.2302ZM21.538 15.3449C21.538 15.3449 21.7426 15.3449 21.538 15.3449C21.3333 15.1403 21.1287 14.9356 21.1287 14.5263C20.3101 13.5031 19.2868 12.4798 18.4682 11.4566C17.2403 10.024 15.8078 8.59149 14.5799 7.29538C13.5567 6.27214 12.5334 5.45353 11.1009 4.63493H10.8962C14.7163 7.70467 18.0589 11.593 21.538 15.3449Z" fill="#020203"/>
<path d="M21.7433 21.2801C22.7665 22.3033 24.1991 23.3266 25.427 24.1452L25.2223 23.9405C23.3805 22.9172 21.5386 21.6893 19.8332 20.6661C17.7868 19.4382 15.672 18.0057 13.6255 16.5049C11.9883 15.277 10.3512 13.8445 8.64575 12.1391C8.23645 11.7298 8.0318 11.3205 7.6225 10.9112C11.1015 14.1856 14.8534 17.1188 19.1511 19.1653C18.9464 18.9607 18.7418 18.7561 18.5371 18.5514C16.286 16.7096 13.9666 15.0724 11.7155 13.1623C10.0783 11.9344 8.64577 10.5019 7.34966 8.79649C6.53107 7.77325 5.91711 6.54533 5.50781 5.31743V5.11279C5.71246 5.11279 5.91709 5.31743 6.12173 5.31743C7.34963 5.72673 8.16822 6.34069 9.19147 7.15928C10.624 8.38718 12.2612 9.61509 13.762 10.843C14.5806 11.6616 15.3992 12.4802 16.4224 13.2987C17.6503 14.5266 19.0829 15.9592 20.3108 17.1871C21.5387 18.415 22.7665 19.4382 23.9944 20.6661C25.427 21.894 26.6549 23.1219 28.1556 24.5544C28.3603 24.7591 28.5649 24.9638 28.5649 25.1684C26.3138 24.418 23.9944 22.7808 21.7433 21.2801Z" fill="white"/>
<path d="M18.0578 22.5763C17.6485 22.3716 17.2392 22.167 16.8299 21.9623C15.3973 21.1437 13.9648 20.5298 12.4641 19.7112C10.2129 18.4833 8.0982 17.0508 6.25636 15.3453C5.02847 14.3221 4.00521 13.2989 3.39127 11.8663C2.98197 11.0477 2.77734 10.0245 2.77734 9.00124V8.7966C3.18664 10.8431 4.20989 12.2756 5.64244 13.7764C5.43779 13.3671 5.23312 13.1624 5.02847 12.7531C4.41453 11.7299 4.00525 10.7066 3.59595 9.6834C3.3913 8.86481 3.3913 8.04619 3.59595 7.22759C3.59595 7.22759 3.59595 7.2276 3.59595 7.02295C3.59595 7.43225 3.80059 7.6369 3.80059 7.84155C4.00524 8.66015 4.41454 9.27409 4.82383 10.0927C6.25638 12.5485 8.30287 14.4586 10.6222 16.3004C13.692 18.5515 17.0346 20.6662 20.3089 22.7127L20.5136 22.9173C17.4439 21.8941 14.7152 20.2569 12.0547 18.3469C12.0547 18.3469 12.0547 18.3469 12.0547 18.5515C13.078 19.3701 13.8966 20.1887 14.9198 21.0073C15.9431 20.8709 16.9663 21.7577 18.0578 22.5763C18.0578 22.3716 18.0578 22.3716 18.0578 22.5763Z" fill="white"/>
<path d="M1.96013 10.3647C2.16478 10.5694 2.16476 10.9787 2.36941 11.1834C3.188 13.0252 4.41592 14.4577 5.84847 15.7538C8.71355 18.2096 12.0562 20.529 15.5352 22.1662C17.1724 22.9848 19.0142 23.8033 20.7196 24.6219C21.7429 25.0312 22.7661 25.6452 23.7894 26.0545C23.7894 26.0545 23.994 26.0545 23.994 26.2591C22.1521 25.6452 20.1057 24.8266 18.1956 24.2127C18.1956 24.2127 18.1956 24.2126 18.1956 24.4173C19.4235 25.0312 20.4468 25.6452 21.6747 26.2591C21.2654 26.2591 16.4902 24.2127 13.8298 22.9848C11.374 21.5522 8.84997 20.3243 6.59883 18.4143C8.23602 19.4375 9.66856 20.2561 11.374 21.2794C13.0112 22.098 14.4437 23.1212 16.3538 23.5305C15.9445 23.3258 15.5352 23.1212 15.3305 22.9165C13.284 21.8933 11.1693 20.6654 9.12284 19.2329C7.89495 18.4143 6.87171 17.5957 5.84847 16.7771C4.41592 15.5492 3.188 14.1167 2.36941 12.2066C2.16476 11.7973 1.96013 11.1833 1.96013 10.774C1.75548 10.5694 1.75548 10.5694 1.96013 10.3647C1.75548 10.3647 1.75548 10.3647 1.96013 10.3647Z" fill="white"/>
<path d="M7.68945 3.74805C8.50805 4.15734 9.12199 4.36199 9.94058 4.77129C11.3731 5.58989 12.601 6.61314 13.6242 7.63639C15.4661 9.47823 17.3079 11.5247 19.218 13.4348C20.8552 15.072 22.4924 16.9138 24.1978 18.8238C25.835 20.6657 27.2675 22.5075 28.9729 24.2129C29.3822 24.8269 29.9962 25.4408 30.4055 26.0548C30.2008 25.8501 29.9962 25.6455 29.7915 25.4408C28.5636 24.2129 27.1311 22.7804 25.9032 21.5525C24.266 19.7106 22.4242 18.0735 20.7188 16.1634C19.4909 14.7309 18.263 13.2983 16.8304 11.7976C15.3979 10.1604 13.9653 8.72783 12.2599 7.02242C11.2367 5.99918 10.2134 5.18061 8.98554 4.36201C8.50802 4.56666 8.09875 4.15734 7.68945 3.74805C7.68945 3.9527 7.68945 3.74805 7.68945 3.74805Z" fill="white"/>
<path d="M8.91797 2.31564C9.73656 2.11099 10.3505 2.31562 11.1691 2.72492C12.6016 3.33887 13.8295 4.15748 15.0574 5.38537C16.49 6.61327 17.7179 8.04579 18.9458 9.54655C19.969 10.7744 20.9923 12.0024 22.0155 13.2302C23.6527 15.2767 25.2899 17.5961 26.7907 19.6426C27.8139 20.8705 28.6325 22.303 29.4511 23.5309C29.2464 23.3262 29.0418 23.1216 28.8371 22.9169C27.4046 21.0751 26.1767 19.4379 24.6759 17.5279C23.2434 15.4814 21.6062 13.6395 19.9008 11.7295C18.4682 9.88764 16.831 8.25043 15.1256 6.34038C14.1024 5.11248 12.8745 4.08923 11.442 3.47528C10.828 2.92955 10.0094 2.72494 8.91797 2.31564C9.12262 2.31564 9.12262 2.31564 8.91797 2.31564Z" fill="white"/>
<path d="M8.71289 2.7251C8.91754 2.7251 8.91752 2.72509 9.12217 2.92974C11.1687 3.54369 12.8059 4.56693 14.5113 5.99947C16.1485 7.43202 17.581 9.06921 19.0817 10.7746C21.5375 13.4351 23.8569 16.573 25.9034 19.4381L26.1081 19.6427C25.9034 19.4381 25.4941 19.0288 25.2894 18.8241C23.8569 16.9823 22.4243 15.3451 20.9236 13.4351C19.491 11.7979 18.0585 10.1607 16.5578 8.45529C14.9206 6.61344 13.2834 4.97625 10.964 3.68014C10.2136 3.54371 9.5997 3.1344 8.71289 2.7251C8.71289 2.92975 8.71289 2.92975 8.71289 2.7251Z" fill="white"/>
<path d="M16.5589 13.2303C13.2846 10.3652 10.1466 7.22727 6.46289 4.77148C6.66754 4.77148 6.87221 4.97613 7.07685 4.97613C8.30475 5.38542 9.32799 5.99938 10.1466 6.81797C11.7838 8.25052 13.2163 9.68308 14.7171 11.1838C15.1264 11.7978 15.7403 12.2071 16.1496 12.821C16.5589 12.821 16.5589 13.0257 16.5589 13.2303C16.7636 13.2303 16.7636 13.2303 16.5589 13.2303Z" fill="white"/>
<path d="M21.5377 15.3447C18.0586 11.6611 14.716 7.7045 10.623 4.63477H10.8277C12.0556 5.24871 13.2835 6.27197 14.3067 7.29522C15.5346 8.72776 16.9671 9.95564 18.195 11.4564C19.2183 12.4796 20.0369 13.5029 20.8555 14.5261C21.333 14.9354 21.5377 15.1401 21.5377 15.3447C21.7423 15.3447 21.5377 15.3447 21.5377 15.3447Z" fill="white"/>
</svg>
